<svg xmlns="http://www.w3.org/2000/svg" version="1.1" id="Layer_2" x="0" y="0" viewBox="0 0 133.6 133.6" enable-background="new 0 0 133.6 133.6" xml:space="preserve">
  <linearGradient id="yellow-grad" gradientUnits="userSpaceOnUse" x1="923.3" y1="1320.2" x2="958.2" y2="1320.2">
    <stop offset="0" stop-color="#F5C01B"/>
    <stop offset="1" stop-color="#F39925"/>
  </linearGradient>
  <polygon fill="url(#yellow-grad)" points="124.6 80.3 119.8 88.5 114.8 90.6 104.1 90.1 93.3 90.1 90.1 90.1 89.9 94.8 89.9 104 90.1 110.2 89.9 117.5 66.6 131 66.4 2.5 82.9 11.1 90.5 16.3 90.2 43.2 94 43 115.6 43 119.8 45.8 126.6 58.5 131.4 65.6 "/>
  <polygon fill="#F7D16F" points="9.4 80.2 14.2 88.4 19.1 90.5 29.9 90 40.7 90 43.9 90 44 94.7 44 103.9 43.9 110.1 44 117.4 67.4 130.9 67.5 2.4 51.1 11 43.5 16.2 43.8 43 40 42.9 18.4 42.9 14.2 45.7 7.4 58.4 2.6 65.5 "/>
  <g enable-background="new    ">
    <path fill="#5A6160" d="M66.5 133.6c-1.4 0-2.9-0.3-4-0.9l-18.3-10.5c-2.2-1.2-4-4.2-4-6.9l0-22.1 -21.7 0c-2.7 0-5.7-1.7-6.9-4L1 70.8c-1.3-2.3-1.3-5.8 0-8.1l10.5-18.3c1.2-2.2 4.2-4 6.9-4l22 0 0-21.9c0-2.7 1.7-5.7 4-6.9L62.6 1c2.3-1.3 5.8-1.3 8.1 0L89 11.7c2.2 1.2 4 4.2 4 6.9l0 22 22 0c2.7 0 5.7 1.7 6.9 4l10.7 18.3c1.3 2.3 1.3 5.7 0 8l-10.7 18.4c-1.2 2.2-4.2 4-6.9 4l-22.2 0 0 21.9c0 2.7-1.7 5.7-4 6.9l-18.3 10.7C69.4 133.2 68 133.6 66.5 133.6zM18.4 45.4c-0.8 0-2.2 0.7-2.6 1.4L5.3 65.2c-0.4 0.7-0.4 2.4 0 3.1L16 86.6c0.4 0.7 1.7 1.5 2.6 1.5l26.7 0 0 27.1c0 0.8 0.7 2.2 1.4 2.6L65 128.3c0.7 0.4 2.4 0.4 3.1 0l18.3-10.7c0.7-0.4 1.5-1.7 1.5-2.6l0-26.9 27.1 0c0.8 0 2.2-0.7 2.6-1.4l10.7-18.4c0.4-0.7 0.4-2.3 0-3.1L117.6 47c-0.4-0.7-1.7-1.5-2.6-1.5l-27 0 0-27c0-0.8-0.7-2.2-1.4-2.6L68.2 5.3c-0.7-0.4-2.4-0.4-3.1 0L46.8 16c-0.7 0.4-1.5 1.7-1.5 2.6l0 26.9L18.4 45.4z"/>
  </g>
</svg>
