<svg xmlns="http://www.w3.org/2000/svg" version="1.1" id="Layer_2" x="0" y="0" viewBox="0 0 74.4 82.8" enable-background="new 0 0 74.4 82.8" xml:space="preserve"><linearGradient id="R_SVGID_1_" gradientUnits="userSpaceOnUse" x1="36.3" y1="41.7" x2="72.2" y2="41.7"><stop offset="0" stop-color="#F5C01B"/><stop offset="1" stop-color="#F39925"/></linearGradient><linearGradient id="R_SVGID_2_" gradientUnits="userSpaceOnUse" x1="35.8" y1="41.7" x2="72.7" y2="41.7"><stop offset="0" stop-color="#FFFFFF"/><stop offset="1" stop-color="#000000"/></linearGradient><polygon fill="url(#R_SVGID_1_)" stroke="url(#R_SVGID_2_)" stroke-miterlimit="10" points="36.3 1.5 72.2 21.6 72.2 61.8 36.3 81.9 "/><polygon fill="#F7D16F" points="37.4 81.9 2.6 61.8 2.6 21.6 37.4 1.5 "/><polygon fill="#F7D16F" points="37.4 81.9 2.6 61.8 2.6 21.6 37.4 1.5 "/><g id="XMLID_5_" enable-background="new    "><path fill="#5A6160" d="M37.2 82.8c-1.9 0-3.7-0.4-5.1-1.2l-27-15.5C2.2 64.5 0 60.6 0 57.3V25.8c0-3.4 2.2-7.3 5.1-8.9L32 1.2c2.9-1.6 7.5-1.6 10.4 0l27 15.8c2.8 1.6 5.1 5.5 5.1 8.8V57c0 3.4-2.2 7.3-5.1 8.9l-27 15.7C41 82.4 39.1 82.8 37.2 82.8zM37.2 4.3c-1.1 0-2.3 0.2-3.1 0.7L7.2 20.6c-1.5 0.9-2.9 3.3-2.9 5.1v31.5c0 1.8 1.4 4.3 2.9 5.1l27 15.5c1.6 0.9 4.5 0.9 6.1 0l26.9-15.7c1.5-0.8 2.9-3.3 2.9-5.1V25.8c0-1.8-1.4-4.3-2.9-5.1l-27-15.8C39.5 4.5 38.4 4.3 37.2 4.3z"/></g></svg>
