<svg xmlns="http://www.w3.org/2000/svg" version="1.2" baseProfile="tiny" id="Layer_1" x="0" y="0" viewBox="0 0 152.4 152.5" xml:space="preserve"><polyline fill="#F7D171" points="37.4 81.9 2.6 61.8 2.6 21.6 37.4 1.5 "/><polyline fill="#9ED5E2" points="79.4 151.8 44.3 132.2 43.7 92 78.2 71.4 "/><polyline fill="#4AADBE" points="78 70.9 113.1 90.5 113.7 130.7 79.2 151.3 "/><g id="XMLID_1_"><path fill="#5B6261" d="M78.8 152.5c-1.8 0-3.6-0.4-5-1.2l-27.1-15.4c-2.9-1.7-5.2-5.6-5.2-8.9l-0.1-31.1c-0.1-3.2 2.2-7.1 5.1-8.8l27.2-15.8c2.9-1.7 7.4-1.7 10.2 0L111 86.5c2.9 1.7 5.2 5.6 5.2 8.9l-0.1 31.3c0.1 3.2-2.2 7.1-5.1 8.8l-27 15.7C82.6 152 80.7 152.5 78.8 152.5zM75.8 74.8L48.6 90.6c-1.6 0.9-3 3.4-3 5.1l0.1 31.1c0 1.8 1.5 4.4 3.1 5.3L76 147.5c1.5 0.9 4.4 0.9 5.9 0l27-15.7c1.6-0.9 3-3.4 3-5.1l0.1-31.3c0-1.8-1.5-4.3-3.1-5.3L81.8 74.8C80.3 73.9 77.4 73.9 75.8 74.8L75.8 74.8z"/></g><path fill="#5C6361" d="M18.2 109.3c-0.4 0-0.9-0.1-1.3-0.4C6.6 102.5 0.4 91.4 0.4 79.3c0-1.4 1.1-2.5 2.5-2.5s2.5 1.1 2.5 2.5c0 10.4 5.3 19.9 14.1 25.4 1.2 0.7 1.5 2.3 0.8 3.4C19.9 108.9 19.1 109.3 18.2 109.3z"/><polygon fill="#5C6361" points="35.2 111.6 14.7 94.3 17.2 105.8 8.4 113.7 "/><path fill="#5C6361" d="M114.9 76c-1.4 0-2.5-1.1-2.5-2.5 0-10.4-5.3-19.9-14.1-25.4 -1.2-0.7-1.5-2.3-0.8-3.4 0.7-1.2 2.3-1.5 3.4-0.8 10.3 6.4 16.5 17.5 16.5 29.6C117.4 74.9 116.2 76 114.9 76z"/><polygon fill="#5C6361" points="82.5 41.2 103.1 58.5 100.6 47 109.3 39.1 "/><linearGradient id="SVGID_1_" gradientUnits="userSpaceOnUse" x1="36.2" y1="41.7" x2="71.9" y2="41.7"><stop offset="0" stop-color="#F4C01B"/><stop offset="1" stop-color="#F39925"/></linearGradient><polygon fill="url(#SVGID_1_)" points="36.2 1.5 71.3 21.1 71.9 61.3 37.4 81.9 "/><g id="XMLID_5_"><path fill="#5B6261" d="M37.2 82.8c-1.9 0-3.7-0.4-5.1-1.2l-27-15.5C2.2 64.5 0 60.6 0 57.3V25.8c0-3.4 2.2-7.3 5.1-8.9L32 1.2c2.9-1.6 7.5-1.6 10.4 0l27 15.8c2.8 1.6 5.1 5.5 5.1 8.8V57c0 3.4-2.2 7.3-5.1 8.9L42.4 81.6C41 82.4 39.1 82.8 37.2 82.8zM37.2 4.3c-1.1 0-2.3 0.2-3.1 0.7L7.2 20.6c-1.5 0.9-2.9 3.3-2.9 5.1v31.5c0 1.8 1.4 4.3 2.9 5.1l27 15.5c1.6 0.9 4.5 0.9 6.1 0l26.9-15.7c1.5-0.8 2.9-3.3 2.9-5.1V25.8c0-1.8-1.4-4.3-2.9-5.1l-27-15.8C39.5 4.5 38.4 4.3 37.2 4.3z"/></g></svg>
