<svg xmlns="http://www.w3.org/2000/svg" version="1.1" id="Layer_1" x="0" y="0" viewBox="0 0 74.4 70.1" xml:space="preserve">
  <polygon fill="#F7D171" points="37.5 12.9 2.6 8.5 2.6 25.1 28.4 40 31 63.2 37.1 65.7 37.2 45 37.4 45.2 72.2 25.1 72.4 8.3 "/>
  <linearGradient id="yellow-grad" gradientUnits="userSpaceOnUse" x1="37.1" y1="38.2" x2="72.2" y2="38.2">
    <stop offset="0" stop-color="#F6C01A"/>
    <stop offset="1" stop-color="#F39925"/>
  </linearGradient>
  <polygon fill="url(#yellow-grad)" points="37.3 12.4 72.2 7.8 72.1 24.5 45.4 41.4 45.8 68.6 37.1 65.7 "/>
  <path fill="#5A6160" d="M74.4 6.8c0-2.4-2-4.1-12.1-5.4C55.6 0.5 46.7 0 37.2 0c-9.5 0-18.4 0.5-25.1 1.4C2 2.7 0 4.5 0 6.8v13.7c0 3.4 2.2 7.3 5.1 8.9l21 11.8v16.7 5.2l22.2 7v-3.8 -1 -24l21-12.2c2.9-1.6 5.1-5.5 5.1-8.9V6.8L74.4 6.8C74.4 6.8 74.4 6.8 74.4 6.8zM37.2 4.3c15.4 0 26.5 1.3 31.1 2.6 -4.6 1.3-15.7 2.6-31.1 2.6S10.7 8.1 6.1 6.8C10.7 5.6 21.8 4.3 37.2 4.3zM67.2 25.4L43.1 40.2v23.4l-11.7-3.9V40.2L7.2 25.6c-1.5-0.8-2.9-3.3-2.9-5.1v-9.8c1.8 0.6 4.3 1.1 7.9 1.6 6.7 0.9 15.6 1.4 25.1 1.4 9.5 0 18.4-0.5 25.1-1.4 3.5-0.5 6-1 7.9-1.6v9.6C70.2 22.1 68.8 24.6 67.2 25.4z"/>
</svg>
