<svg xmlns="http://www.w3.org/2000/svg" version="1.1" id="Layer_2" x="0" y="0" viewBox="0 0 194.5 194.8" enable-background="new 0 0 194.5 194.8" xml:space="preserve"><path fill="#F7D16F" d="M136.6 73.1l5.1 4.7 11.1-0.2 17.8-4.8 9.3-2.8 5.5-5.5c0 0 2.8-15.7 3-16.5 0.2-0.7 3.4-10 3.4-10l-3.9-1.1L169.5 47l-7 1.5 -5.5-4.9 -4.8-4.8 -49.6 47.8 -64 65.8 8.6 8.6 0.3 6.7L44 175l-5.3 10.4 -1.5 6 24.6-6.5 6.6-3.1 3.2-10 2.7-11.8 4.3-12 -2.1-7.8 -3.5-3.5L136.6 73.1z"/><linearGradient id="SVGID_1_" gradientUnits="userSpaceOnUse" x1="90.4" y1="99" x2="118.9" y2="127.6" gradientTransform="matrix(-1 0 0 -1 188.4181 197.1551)"><stop offset="0" stop-color="#F7BC17"/><stop offset="1" stop-color="#F39C23"/></linearGradient><path fill="url(#SVGID_1_)" d="M57.9 121.7l-5.1-4.7 -11.1 0.2L23.9 122l-9.3 2.8 -5.5 5.5c0 0-2.8 15.7-3 16.5 -0.2 0.7-3.4 10-3.4 10l3.9 1.1 18.4-10.2 7-1.5 5.5 4.9 2 2.2 50.1-48 65.2-64.1 -7.6-7.6 -0.3-6.7 3.7-7.2 5.3-10.4 1.5-6 -24.6 6.5 -6.6 3.1 -3.2 10 -2.7 11.8 -4.3 12 2.1 7.8 3.5 3.5L57.9 121.7z"/><path fill="#5A6160" d="M35.4 194.8c-0.9 0-1.8-0.4-2.3-1.1 -0.7-0.9-0.9-2.2-0.3-3.2l13.1-25.6c0-0.5-0.2-1.4-0.6-1.7l-13.8-13.8c-0.3-0.3-1.2-0.6-1.7-0.6L4.3 161.3c-1.1 0.5-2.3 0.4-3.2-0.4 -0.9-0.7-1.3-1.9-1-3.1l7.5-28.7c1-3.5 4.5-7 7.9-7.9l30.1-8.1c3.4-1 8.1 0.3 10.7 2.9l1.5 1.5L117.3 58l-1.3-1.3c-2.6-2.6-3.9-7.3-2.9-10.7l7.9-30.1c1-3.6 4.4-6.9 7.9-7.9l29.4-7.7c1.1-0.3 2.4 0.1 3.1 1 0.7 0.9 0.9 2.2 0.3 3.2l-13.1 25.6c0 0.5 0.2 1.4 0.6 1.7L163 45.4h0c0.3 0.3 1.2 0.6 1.7 0.6l25.4-12.4c1.1-0.5 2.3-0.4 3.2 0.4 0.9 0.7 1.3 1.9 1 3.1l-7.5 28.7c-1 3.6-4.4 7-7.9 7.9l-30.1 8.1c-3.4 1-8.1-0.3-10.7-2.9l-1.5-1.5 -59.5 59.5 1.3 1.3c2.6 2.6 3.9 7.3 2.9 10.7L73.5 179c-1 3.6-4.4 6.9-7.9 7.9l-29.4 7.7C35.9 194.8 35.6 194.8 35.4 194.8zM29.8 142.9c2.1 0 4.4 0.9 5.9 2.3L49.4 159c1.9 1.9 2.8 5.2 2.1 7.8 -0.1 0.2-0.1 0.4-0.2 0.5l-10.2 20 22.9-6c1.4-0.4 3.3-2.3 3.7-3.8l7.9-30.1c0.4-1.4-0.3-3.8-1.3-4.9l-3.5-3.5c-0.6-0.6-0.9-1.3-0.9-2.1s0.3-1.6 0.9-2.1l63-63c0.2-0.2 0.3-0.3 0.4-0.5 0.5-0.7 1.3-1.1 2.2-1.1 0.9 0 1.7 0.3 2.3 0.9l3.7 3.7c1.1 1.1 3.5 1.7 4.8 1.4l30.1-8.1c1.4-0.4 3.3-2.3 3.7-3.8l5.9-22.3L167 51.5c-0.2 0.1-0.3 0.1-0.5 0.2 -2.5 0.7-5.9-0.2-7.8-2.1L145 35.9c-1.9-1.9-2.8-5.2-2.1-7.8 0.1-0.2 0.1-0.4 0.2-0.5l10.2-20 -22.9 6c-1.4 0.4-3.3 2.3-3.7 3.8l-7.9 30.1c-0.4 1.4 0.3 3.8 1.3 4.9l3.5 3.5c0.6 0.6 0.9 1.4 0.9 2.3 0 0.9-0.5 1.6-1.1 2.2 -0.2 0.1-0.3 0.3-0.5 0.4l-63 63c-1.2 1.2-3.1 1.2-4.2 0l-3.6-3.6c-1.1-1.1-3.5-1.7-4.8-1.4L17.2 127c-1.4 0.4-3.3 2.3-3.7 3.8L7.6 153l19.9-9.7c0.2-0.1 0.3-0.1 0.5-0.2C28.5 143 29.1 142.9 29.8 142.9z"/></svg>
