<?xml version="1.0" encoding="utf-8"?>
<!-- Generator: Adobe Illustrator 21.0.2, SVG Export Plug-In . SVG Version: 6.00 Build 0)  -->
<svg version="1.1" id="Capa_1" xmlns="http://www.w3.org/2000/svg" xmlns:xlink="http://www.w3.org/1999/xlink" x="0px" y="0px"
	 viewBox="0 0 90 69" style="enable-background:new 0 0 90 69;" xml:space="preserve">
<style type="text/css">
	.st0{fill:#5588A3;}
</style>
<g>
	<path id="Github__x28_alt_x29_" class="st0" d="M65.7,0c1.2,2.7,1.9,7.1,0.8,10.3c4.6,3.9,6.2,13.5,4,21.4
		c6.6,0.5,14.4-0.2,19.5,1.8c-4.7-0.6-11.2-1.8-17.3-1.4c-1.2,0.1-2.9,0-2.8,1.6c7.1,0.6,14.1,1.2,19.9,3C84,35.7,77,34.3,69.9,34.1
		c-3,5.8-8.9,8.7-17.1,9.3c0.9,1.9,2.6,2.7,3,5.7c0.6,4.6-1,11.4,0.6,14.5c0.7,1.5,2,1.5,2.8,2.8c-2,2.4-7-0.3-7.6-2.8
		c-1-4.3,1.5-11-1.2-13.9c0.2,4.7-1.1,11.3,0.2,15.4c0.5,1.6,2,2.3,1.6,3.8c-9.4,0.9-5.4-12.1-7-19.8c-1.4,0.1-0.8,2.1-0.8,3
		c0,7.5,1.5,17.8-6.6,16.8c-0.2-1.6,1.1-2.1,1.6-3.6c1.5-4.2-0.3-10.5,0.4-15.7c-3.1,2.3,0.3,10.5-1.6,14.7
		c-1.1,2.4-4.7,3.4-7.4,2.4c0.4-1.8,2.2-1.5,3-3.2c1.1-2.3,0-5.7,0.4-9.1c-5.7,1.1-10.2-0.2-12.3-3.8c-1-1.6-1.2-3.5-2.4-5
		c-1.2-1.4-3-1.6-3.6-3.6c7.1-1.7,7.4,7.3,13.7,7.5c2,0.1,3-0.6,4.8-1c0.5-2.3,1.6-4,3.2-5.2c-7.9-1.1-14.5-3.6-17.5-9.5
		c-7.2,0.4-13.8,1.3-19.9,2.8c5.5-2,12.4-2.7,19.7-3c-0.4-2.6-4.2-1.9-6.6-1.8C9,32.3,3.5,32.8,0,33.5c5-1.8,12.1-1.6,18.9-1.6
		c-2.1-6.5-1.4-16.9,3.2-20.8C20.8,7.8,21.2,2.5,22.9,0c5.1,0.2,8.2,2.4,11.4,4.6c4-1.1,8.1-1.7,13.5-1.4c2.3,0.1,4.7,1.2,6.4,1
		c1.7-0.2,3.5-2,5.2-2.8C61.5,0.4,63.3,0.1,65.7,0z"/>
</g>
</svg>
