<svg xmlns="http://www.w3.org/2000/svg" xmlns:xlink="http://www.w3.org/1999/xlink" version="1.1" id="Layer_1" x="0" y="0" viewBox="0 0 315 450.2" enable-background="new 0 0 319.4 450.2" xml:space="preserve"><path fill="#F7D171" d="M160.5 6.5L11.1 92.7v172.5l90.3 52.1v16.4c0 0 3.1 38.4 3.2 39.9s4.7 18.1 5.1 18.8 57.8 8 57.8 8L160.5 6.5z"/><linearGradient id="L_SVGID_1_" gradientUnits="userSpaceOnUse" x1="160.01" y1="203.91" x2="309.43" y2="203.91"><stop offset="0" stop-color="#F5C01B"/><stop offset="1" stop-color="#F39925"/></linearGradient><path fill="url(#L_SVGID_1_)" d="M160 398.8c0 0 41.1 1.2 43.1 0.6s14.5-6.6 14.6-14 -0.1-44.8 0-50c0.1-3.1-0.6-9.8-1.2-14.8l92.8-53.6V94.5L160 8.2V398.8z"/><path fill="#8A6F2C" d="M172.6 400c-2.2 0-4-1.8-4-4 -1.1-128.5 43.1-234.9 43.5-236 0.9-2 3.2-3 5.2-2.1 2 0.9 3 3.2 2.1 5.2 -0.4 1-44 106.1-42.9 232.8C176.6 398.1 174.8 400 172.6 400 172.6 400 172.6 400 172.6 400z"/><path fill="#8A6F2C" d="M147.7 400C147.7 400 147.7 400 147.7 400c-2.2 0-4-1.8-4-4 1.1-126.9-42.4-231.8-42.9-232.8 -0.9-2 0.1-4.4 2.1-5.2 2-0.9 4.4 0.1 5.2 2.1 0.4 1.1 44.6 107.5 43.5 236C151.7 398.2 149.9 400 147.7 400z"/><path fill="none" stroke="#737373" stroke-width="18" stroke-miterlimit="10" d="M100.2 315.9"/><path fill="#5C6361" d="M297.7 72.7L182 5.3l-0.2-0.1c-12.4-6.9-31.8-6.9-44.3 0L21.8 72.7C9.6 79.6 0 96.2 0 110.7v135c0 14.5 9.6 31.1 21.8 38l70.8 40.6c0.7 1.4 1.4 3.8 1.5 9.3 0 3.4 0.2 4.2 0.5 11.8 1 30.5 2.3 68.5 25.6 72.8 3.2 0.6 27.5 2.6 37.2 3 0.7 0.1 1.4 0.1 2.5 0.1l0.1-18 -0.1 0 -0.1 0c-0.3 0-0.5 0-0.7 0l-0.7 0c-9.6-0.4-32.6-2.3-34.9-2.7 -0.5-0.1-4.6-1.3-7.6-16.8 -2.3-11.9-2.8-26.9-3.2-38.9 -0.3-9-0.5-16.1-1.4-20.8 -0.6-3.2-3-13.5-11.4-16.7l-68.8-39.5 -0.1-0.1c-6.4-3.6-12.4-14.2-12.4-22v-135c0-7.8 6-18.4 12.4-22l115.8-67.6c6.9-3.8 19.4-3.8 26.3 0l115.6 67.5 0.2 0.1c6.4 3.6 12.4 14.2 12.4 22v134c0 7.8-6 18.5-12.4 22l-67.8 39.6c-1.7 0.6-3.1 1.5-4.4 2.5l-0.2 0.1 0 0c-5 4.4-6.6 11.5-7.1 14.1 -0.9 4.7-1.1 11.8-1.4 20.8 -0.4 12-0.9 27-3.2 38.9 -3 15.5-7.2 16.7-7.6 16.8 -2.3 0.4-25.3 2.3-34.9 2.7l-0.7 0c-0.2 0-0.4 0-0.7 0l-0.1 0 -0.1 0 0.1 18c1 0 1.8 0 2.5-0.1 9.7-0.4 34-2.4 37.2-3 23.3-4.3 24.5-42.3 25.6-72.8 0.3-7.6 0.5-8.4 0.5-11.8 0.1-5.4 0.7-7.7 1.4-9.2l69.9-40.8c12.2-6.8 21.8-23.5 21.8-38v-134C319.4 96.2 309.9 79.6 297.7 72.7z"/><defs><path id="L_SVGID_2_" d="M190.5 450.2H129c-1.6 0-2.9-1.3-2.9-2.9v-16.9c0-1.6 1.3-2.9 2.9-2.9h61.5c1.6 0 2.9 1.3 2.9 2.9v16.9C193.3 448.9 192 450.2 190.5 450.2z"/></defs><use xlink:href="#L_SVGID_2_" overflow="visible" fill="#787878"/><clipPath id="L_SVGID_3_"><use xlink:href="#L_SVGID_2_" overflow="visible"/></clipPath><g id="XMLID_26_" clip-path="url(#L_SVGID_3_)"><path fill="#787878" d="M190.5 450.2H129c-1.6 0-2.9-1.3-2.9-2.9v-16.9c0-1.6 1.3-2.9 2.9-2.9h61.5c1.6 0 2.9 1.3 2.9 2.9v16.9C193.3 448.9 192 450.2 190.5 450.2z"/></g><g id="XMLID_25_" clip-path="url(#L_SVGID_3_)"><path fill="#808080" d="M190.5 444.1H129c-1.6 0-2.9-1.3-2.9-2.9v-16.9c0-1.6 1.3-2.9 2.9-2.9h61.5c1.6 0 2.9 1.3 2.9 2.9v16.9C193.3 442.9 192 444.1 190.5 444.1z"/></g><defs><path id="L_SVGID_4_" d="M212.9 431.6H106.6c-1.6 0-2.9-1.3-2.9-2.9v-16.9c0-1.6 1.3-2.9 2.9-2.9h106.3c1.6 0 2.9 1.3 2.9 2.9v16.9C215.7 430.3 214.5 431.6 212.9 431.6z"/></defs><use xlink:href="#L_SVGID_4_" overflow="visible" fill="#666767"/><clipPath id="L_SVGID_5_"><use xlink:href="#L_SVGID_4_" overflow="visible"/></clipPath><g id="XMLID_23_" clip-path="url(#L_SVGID_5_)"><path fill="#6B6C6C" d="M212.9 426.7H106.6c-1.6 0-2.9-1.3-2.9-2.9v-16.9c0-1.6 1.3-2.9 2.9-2.9h106.3c1.6 0 2.9 1.3 2.9 2.9v16.9C215.7 425.4 214.5 426.7 212.9 426.7z"/></g><defs><path id="L_SVGID_6_" d="M230 413H89.4c-1.6 0-2.9-1.3-2.9-2.9v-16.9c0-1.6 1.3-2.9 2.9-2.9H230c1.6 0 2.9 1.3 2.9 2.9v16.9C232.9 411.7 231.6 413 230 413z"/></defs><use xlink:href="#L_SVGID_6_" overflow="visible" fill="#616161"/><clipPath id="L_SVGID_7_"><use xlink:href="#L_SVGID_6_" overflow="visible"/></clipPath><g clip-path="url(#L_SVGID_7_)"><path fill="#676767" d="M230 407.3H89.4c-1.6 0-2.9-1.3-2.9-2.9v-16.9c0-1.6 1.3-2.9 2.9-2.9H230c1.6 0 2.9 1.3 2.9 2.9v16.9C232.9 406 231.6 407.3 230 407.3z"/></g><path fill="#E55325" d="M95.3 165.1c-3.9 0-7.4-1.4-8.5-3.5 -1.2-2.5 1.6-5 6.3-5.7 2.6-0.4 65.3-8.7 133.1 0 4.7 0.6 7.6 3.1 6.4 5.6 -1.1 2.5-5.9 4-10.5 3.4 -63.6-8.2-124-0.1-124.6 0C96.7 165.1 96 165.1 95.3 165.1z"/><path fill="#E35E28" d="M95.3 167c-4.7 0-8.8-1.8-10.1-4.5 -0.6-1.3-0.6-2.8 0.1-4.1 1.1-2.1 4-3.7 7.6-4.2 2.6-0.4 65.6-8.8 133.5 0 3.6 0.5 6.5 2 7.7 4.1 0.7 1.3 0.8 2.7 0.2 4.1 -1.7 3.7-7.7 5.1-12.4 4.5 -63.2-8.1-123.6-0.1-124.2 0C96.9 166.9 96.1 167 95.3 167zM161.4 159.5c18.6 0 39.6 0.9 61 3.7 4.4 0.6 8-1 8.6-2.4 0.1-0.2 0.1-0.4 0-0.8 -0.5-0.9-2.2-1.9-5-2.3 -67.5-8.7-130-0.3-132.6 0 -2.7 0.4-4.4 1.4-4.9 2.3 -0.1 0.3-0.2 0.5 0 0.8 0.6 1.2 3.3 2.5 6.8 2.5 0.7 0 1.3 0 1.9-0.1C97.6 163.1 124.6 159.5 161.4 159.5z"/></svg>
