<?xml version="1.0" encoding="utf-8"?>
<!-- Generator: Adobe Illustrator 19.2.1, SVG Export Plug-In . SVG Version: 6.00 Build 0)  -->
<svg version="1.1" id="Layer_2" xmlns="http://www.w3.org/2000/svg" xmlns:xlink="http://www.w3.org/1999/xlink" x="0px" y="0px"
	 viewBox="0 0 82.8 82.8" enable-background="new 0 0 74.4 82.8" xml:space="preserve">
<g>
	<linearGradient id="U_SVGID_1_" gradientUnits="userSpaceOnUse" x1="37.522" y1="41.9195" x2="72.3479" y2="41.9195">
		<stop  offset="0" style="stop-color:#F5C01B"/>
		<stop  offset="1" style="stop-color:#F39925"/>
	</linearGradient>
	<polygon fill="url(#U_SVGID_1_)" points="37.5,1.7 72.3,21.8 72.3,62 37.5,82.1 	"/>
</g>
<g>
	<polygon fill="#F7D16F" points="37.5,81.9 2.7,61.8 2.7,21.6 37.5,1.5 	"/>
</g>
<g id="XMLID_5_" enable-background="new    ">
	<path fill="#5A6160" d="M37.2,82.8c-1.9,0-3.7-0.4-5.1-1.2l-27-15.5C2.2,64.5,0,60.6,0,57.3V25.8c0-3.4,2.2-7.3,5.1-8.9L32,1.2
		c2.9-1.6,7.5-1.6,10.4,0l27,15.8c2.8,1.6,5.1,5.5,5.1,8.8V57c0,3.4-2.2,7.3-5.1,8.9L42.4,81.6C41,82.4,39.1,82.8,37.2,82.8z
		 M37.2,4.3c-1.1,0-2.3,0.2-3.1,0.7L7.2,20.6c-1.5,0.9-2.9,3.3-2.9,5.1v31.5c0,1.8,1.4,4.3,2.9,5.1l27,15.5c1.6,0.9,4.5,0.9,6.1,0
		l26.9-15.7c1.5-0.8,2.9-3.3,2.9-5.1V25.8c0-1.8-1.4-4.3-2.9-5.1l-27-15.8C39.5,4.5,38.4,4.3,37.2,4.3z"/>
</g>
<g>
	<defs>
		<path id="U_SVGID_2_" d="M42.2,42.8c0,0-0.4-13.2-4.9-26c-4.4,12.8-4.9,26-4.9,26h0c0,0.2,0,0.4,0,0.6c0,2.8,2.2,5.1,4.9,5.1
			c2.7,0,4.9-2.3,4.9-5.1C42.2,43.2,42.2,43,42.2,42.8L42.2,42.8z"/>
	</defs>
	<use xlink:href="#U_SVGID_2_"  overflow="visible" fill="#596B70"/>
	<clipPath id="U_SVGID_3_">
		<use xlink:href="#U_SVGID_2_"  overflow="visible"/>
	</clipPath>
	<g id="XMLID_10_" clip-path="url(#U_SVGID_3_)">
		<path fill="#5B7477" d="M43.7,41.7c0,0-1.3-14-5.7-26.8c-4.4,12.8-4,26.8-4,26.8h0c0,0.2,0,0.4,0,0.6c0,2.8,2.2,5.1,4.9,5.1
			s4.9-2.3,4.9-5.1C43.7,42.1,43.6,41.9,43.7,41.7L43.7,41.7z"/>
	</g>
</g>
<g>
	<defs>
		<path id="U_SVGID_4_" d="M35.7,47.2c0,0,8.5,7.9,18.9,13.2C49.2,50,41.2,41.7,41.2,41.7l0,0c-0.1-0.1-0.2-0.3-0.4-0.4
			c-1.7-1.7-4.4-1.9-5.9-0.4c-1.5,1.5-1.3,4.2,0.4,5.9C35.5,46.9,35.6,47.1,35.7,47.2L35.7,47.2z"/>
	</defs>
	<use xlink:href="#U_SVGID_4_"  overflow="visible" fill="#5E7E82"/>
	<clipPath id="SVGID_5_">
		<use xlink:href="#U_SVGID_4_"  overflow="visible"/>
	</clipPath>
	<g id="XMLID_12_" clip-path="url(#SVGID_5_)">
		<path fill="#5F8589" d="M35.6,48.7c0,0,9.4,7.9,19.9,13.2C50,51.6,41.1,43.2,41.1,43.2l0,0c-0.1-0.1-0.2-0.3-0.4-0.4
			c-1.7-1.7-4.4-1.9-5.9-0.4c-1.5,1.5-1.3,4.2,0.4,5.9C35.3,48.5,35.5,48.6,35.6,48.7L35.6,48.7z"/>
	</g>
</g>
<g>

		<ellipse transform="matrix(0.9014 -0.4329 0.4329 0.9014 -15.2873 20.5665)" fill="#F7D16F" cx="37.5" cy="43.9" rx="1.5" ry="1.5"/>
</g>
</svg>
