<svg xmlns="http://www.w3.org/2000/svg" xmlns:xlink="http://www.w3.org/1999/xlink" viewBox="0 0 1023.92 316.42"><defs><linearGradient id="a" x1="574.44" y1="1366.92" x2="485.27" y2="1366.92" gradientTransform="translate(0 -1248)" gradientUnits="userSpaceOnUse"><stop offset="0" stop-color="#fec017"/><stop offset="1" stop-color="#f89923"/></linearGradient></defs><title>logo_outlined</title><path d="M343.82,97.63a3.61,3.61,0,0,1,1.4-2.68l9.5-6a2.87,2.87,0,0,1,3.07,0l9.5,6a3.61,3.61,0,0,1,1.4,2.68v11.9a3.61,3.61,0,0,1-1.4,2.68l-9.5,6a2.87,2.87,0,0,1-3.07,0l-9.5-6a3.61,3.61,0,0,1-1.4-2.68V97.63Z" transform="translate(0 -14.04)" style="fill:#f5b71a"/><path d="M234.32,200.94a1.65,1.65,0,0,1,.84-1.49l5.87-3.57a1.66,1.66,0,0,1,1.68,0l5.87,3.57a1.65,1.65,0,0,1,.84,1.49v7.14a1.65,1.65,0,0,1-.84,1.49l-5.87,3.57a1.66,1.66,0,0,1-1.68,0l-5.87-3.57a1.65,1.65,0,0,1-.84-1.49v-7.14Z" transform="translate(0 -14.04)" style="fill:#f5b71a"/><path d="M1023.92,196.68l-5.87-3.57a1.65,1.65,0,0,1-.84-1.49v-7.14a1.65,1.65,0,0,1,.84-1.49l5.87-3.57" transform="translate(0 -14.04)" style="fill:#f5b71a"/><path d="M0,187.18a2.91,2.91,0,0,1,2.23,0l7.54,4.76A3.06,3.06,0,0,1,10.89,194v9.22a2.54,2.54,0,0,1-1.12,2.08l-7.54,4.76a2.91,2.91,0,0,1-2.23,0" transform="translate(0 -14.04)" style="fill:#f5b71a"/><path d="M14.27,39.93a4,4,0,0,1,1.68-3l10.89-6.84a3.37,3.37,0,0,1,3.35,0L41.08,37a4.6,4.6,0,0,1,1.68,3V53.32a4,4,0,0,1-1.68,3L30.19,63.13a3.37,3.37,0,0,1-3.35,0L15.95,56.59a4.6,4.6,0,0,1-1.68-3V39.93Z" transform="translate(0 -14.04)" style="fill:#f7d16e"/><path d="M129.79,292.94a1.65,1.65,0,0,1,.84-1.49l5.59-3.27a1.68,1.68,0,0,1,1.68,0l5.59,3.27a1.65,1.65,0,0,1,.84,1.49v6.84a1.65,1.65,0,0,1-.84,1.49l-5.59,3.27a1.68,1.68,0,0,1-1.68,0l-5.59-3.27a1.65,1.65,0,0,1-.84-1.49v-6.84Z" transform="translate(0 -14.04)" style="fill:#f7d16e"/><path d="M876.33,89.21a2.67,2.67,0,0,1,1.4-2.38l8.94-5.65a4.48,4.48,0,0,1,2.79,0l8.94,5.65a2.67,2.67,0,0,1,1.4,2.38v11.31a2.67,2.67,0,0,1-1.4,2.38l-8.94,5.65a4.48,4.48,0,0,1-2.79,0l-8.94-5.36a2.67,2.67,0,0,1-1.4-2.38V89.21Z" transform="translate(0 -14.04)" style="fill:#f7d16e"/><path d="M976.69,20.81a3.06,3.06,0,0,1,1.12-2.08l7.26-4.46a2.91,2.91,0,0,1,2.23,0l7.26,4.46a2.54,2.54,0,0,1,1.12,2.08V30a3.06,3.06,0,0,1-1.12,2.08l-7.26,4.46a2.91,2.91,0,0,1-2.23,0l-7.26-4.46A2.54,2.54,0,0,1,976.69,30V20.81Z" transform="translate(0 -14.04)" style="fill:#f7d16e"/><path d="M29.56,260.11a1.65,1.65,0,0,1,.84-1.49l5-3a1.2,1.2,0,0,1,1.4,0l5,3a2.56,2.56,0,0,1,.84,1.49v6.25a1.65,1.65,0,0,1-.84,1.49l-5,3a1.2,1.2,0,0,1-1.4,0l-5-3a2.56,2.56,0,0,1-.84-1.49v-6.25Z" transform="translate(0 -14.04)" style="fill:#9dd4e1"/><path d="M140.92,132.06a2.46,2.46,0,0,1,1.12-1.79l7-4.17a2.91,2.91,0,0,1,2.23,0l6.7,4.17a2.46,2.46,0,0,1,1.12,1.79v8.63a2.46,2.46,0,0,1-1.12,1.79l-7,4.17a2.91,2.91,0,0,1-2.23,0l-7-4.17a2.46,2.46,0,0,1-1.12-1.79v-8.63h0.28Z" transform="translate(0 -14.04)" style="fill:#9dd4e1"/><path d="M907.48,260.32a2.67,2.67,0,0,1,1.4-2.38l8.66-5.36a4.48,4.48,0,0,1,2.79,0l8.66,5.36a2.67,2.67,0,0,1,1.4,2.38V271a2.67,2.67,0,0,1-1.4,2.38l-8.66,5.36a4.48,4.48,0,0,1-2.79,0l-8.66-5.36a2.67,2.67,0,0,1-1.4-2.38V260.32Z" transform="translate(0 -14.04)" style="fill:#9dd4e1"/><path d="M715.16,50.46A1.65,1.65,0,0,1,716,49l5.87-3.57a1.66,1.66,0,0,1,1.68,0L729.41,49a1.65,1.65,0,0,1,.84,1.49V57.6a1.65,1.65,0,0,1-.84,1.49l-5.87,3.57a1.66,1.66,0,0,1-1.68,0L716,59.09a1.65,1.65,0,0,1-.84-1.49V50.46Z" transform="translate(0 -14.04)" style="fill:#9dd4e1"/><path d="M690.87,152.06A3.85,3.85,0,0,1,692,150l7-4.46a2.91,2.91,0,0,1,2.23,0l7,4.46a2.54,2.54,0,0,1,1.12,2.08v8.63a3.85,3.85,0,0,1-1.12,2.08l-7,4.46a2.91,2.91,0,0,1-2.23,0l-7-4.17a2.54,2.54,0,0,1-1.12-2.08v-8.93Z" transform="translate(0 -14.04)" style="fill:#f0f9fb"/><path d="M206,70.54a3.67,3.67,0,0,1,1.68-3L218.29,61a3.36,3.36,0,0,1,3.35,0l10.61,6.55a4,4,0,0,1,1.68,3V83.63a3.67,3.67,0,0,1-1.68,3l-10.61,6.55a3.36,3.36,0,0,1-3.35,0L207.67,86.6a4,4,0,0,1-1.68-3V70.54Z" transform="translate(0 -14.04)" style="fill:#f0f9fb"/><path d="M42.6,128.55a3.85,3.85,0,0,1,1.12-2.08L51,122a2.91,2.91,0,0,1,2.23,0l7.26,4.46a2.54,2.54,0,0,1,1.12,2.08v8.93a3.85,3.85,0,0,1-1.12,2.08L53.22,144A2.91,2.91,0,0,1,51,144l-7.26-4.46a2.54,2.54,0,0,1-1.12-2.08v-8.93Z" transform="translate(0 -14.04)" style="fill:#f0f9fb"/><path d="M992.11,287.58a1.65,1.65,0,0,1,.84-1.49l5.59-3.57a1.68,1.68,0,0,1,1.68,0l5.59,3.57a1.65,1.65,0,0,1,.84,1.49v6.84a1.65,1.65,0,0,1-.84,1.49l-5.59,3.57a1.68,1.68,0,0,1-1.68,0l-5.59-3.57a1.65,1.65,0,0,1-.84-1.49v-6.84Z" transform="translate(0 -14.04)" style="fill:#f0f9fb"/><path d="M805.95,229.34a3.67,3.67,0,0,1,1.68-3L818,219.82a2.87,2.87,0,0,1,3.07,0l10.33,6.55a4,4,0,0,1,1.68,3v12.79a3.67,3.67,0,0,1-1.68,3L821,251.66a2.87,2.87,0,0,1-3.07,0l-10.33-6.25a4,4,0,0,1-1.68-3V229.34Z" transform="translate(0 -14.04)" style="fill:#fef4de"/><path d="M918.43,170.28a2.46,2.46,0,0,1,1.12-1.79l7-4.46a2.91,2.91,0,0,1,2.23,0l7,4.46a2.46,2.46,0,0,1,1.12,1.79v8.63a2.46,2.46,0,0,1-1.12,1.79l-7,4.46a2.91,2.91,0,0,1-2.23,0l-7-4.17a2.46,2.46,0,0,1-1.12-1.79v-8.93Z" transform="translate(0 -14.04)" style="fill:#fef4de"/><path d="M651.63,240.11a2.73,2.73,0,0,1,1.12-2l7-4.89a2.68,2.68,0,0,1,2.23,0l7,4.89a2.73,2.73,0,0,1,1.12,2v9.45a2.73,2.73,0,0,1-1.12,2l-7,4.89a2.68,2.68,0,0,1-2.23,0l-7-4.56a2.73,2.73,0,0,1-1.12-2v-9.77Z" transform="translate(0 -14.04)" style="fill:#fef4de"/><path d="M284.47,274.24a2.46,2.46,0,0,1,1.12-1.79l7-4.46a2.91,2.91,0,0,1,2.23,0l7,4.46a2.46,2.46,0,0,1,1.12,1.79v8.63a2.46,2.46,0,0,1-1.12,1.79l-7,4.46a2.91,2.91,0,0,1-2.23,0l-7-4.17a2.46,2.46,0,0,1-1.12-1.79v-8.93Z" transform="translate(0 -14.04)" style="fill:#fef4de"/><path d="M773.55,105.58a1.65,1.65,0,0,1,.84-1.49l5.31-3.27a1.68,1.68,0,0,1,1.68,0l5.31,3.27a1.65,1.65,0,0,1,.84,1.49v6.55a1.65,1.65,0,0,1-.84,1.49l-5.31,3.27a1.68,1.68,0,0,1-1.68,0l-5.31-3.27a1.65,1.65,0,0,1-.84-1.49v-6.55Z" transform="translate(0 -14.04)" style="fill:#fef4de"/><path d="M0,298.88l3.7-2.19a3.37,3.37,0,0,1,3.35,0l11.17,6.84a4.6,4.6,0,0,1,1.68,3V320.2a3.53,3.53,0,0,1-1.68,3L7.06,330a3.37,3.37,0,0,1-3.35,0L0,327.79" transform="translate(0 -14.04)" style="fill:#fef4de"/><path d="M325.26,191.86a3.53,3.53,0,0,1,1.68-3L338.11,182a3.37,3.37,0,0,1,3.35,0l11.17,6.84a4.6,4.6,0,0,1,1.68,3v13.69a3.53,3.53,0,0,1-1.68,3l-11.17,6.84a3.37,3.37,0,0,1-3.35,0l-11.17-6.84a4.6,4.6,0,0,1-1.68-3V191.86Z" transform="translate(0 -14.04)" style="fill:#fef4de"/><path d="M104.05,207.92a2.46,2.46,0,0,1,1.12-1.79l6.7-4.17a2.25,2.25,0,0,1,2,0l6.7,4.17a2.46,2.46,0,0,1,1.12,1.79v8.63a2.46,2.46,0,0,1-1.12,1.79l-6.7,4.17a2.25,2.25,0,0,1-2,0l-6.7-4.17a2.46,2.46,0,0,1-1.12-1.79v-8.63Z" transform="translate(0 -14.04)" style="fill:#fef4de"/><path d="M445.49,88a14.89,14.89,0,0,1,6.71-11.62l53.55-30.92a14.87,14.87,0,0,1,13.42,0l53.56,30.92A14.89,14.89,0,0,1,579.44,88v61.84a14.88,14.88,0,0,1-6.71,11.62l-53.56,30.92a14.88,14.88,0,0,1-13.42,0L452.2,161.45a14.88,14.88,0,0,1-6.71-11.62V88Z" transform="translate(0 -14.04)" style="fill:#2b2c2b"/><path d="M451.77,91.62A14.89,14.89,0,0,1,458.47,80l47.28-27.3a14.88,14.88,0,0,1,13.42,0L566.45,80a14.88,14.88,0,0,1,6.71,11.62v54.59a14.88,14.88,0,0,1-6.71,11.62l-47.28,27.3a14.88,14.88,0,0,1-13.42,0l-47.28-27.3a14.88,14.88,0,0,1-6.71-11.62V91.62Z" transform="translate(0 -14.04)" style="fill:#fed16e"/><path d="M566.45,80L519.17,52.7a13.74,13.74,0,0,0-6.71-1.6V186.73a13.73,13.73,0,0,0,6.71-1.6l47.28-27.3a14.87,14.87,0,0,0,6.71-11.62V91.62A14.88,14.88,0,0,0,566.45,80h0Z" transform="translate(0 -14.04)" style="fill:url(#a)"/><path d="M431.47,85.82A7.44,7.44,0,0,1,434.82,80L463.3,63.57a7.45,7.45,0,0,1,6.71,0L498.49,80a7.44,7.44,0,0,1,3.36,5.81v32.88a7.44,7.44,0,0,1-3.36,5.81L470,141a7.47,7.47,0,0,1-6.71,0l-28.48-16.45a7.44,7.44,0,0,1-3.35-5.81V85.82Z" transform="translate(0 -14.04)" style="fill:#2b2c2b"/><path d="M437.57,89.35a7.43,7.43,0,0,1,3.36-5.81L463.3,70.62a7.44,7.44,0,0,1,6.71,0l22.38,12.92a7.44,7.44,0,0,1,3.35,5.81v25.83a7.44,7.44,0,0,1-3.35,5.81L470,133.91a7.46,7.46,0,0,1-6.71,0L440.93,121a7.43,7.43,0,0,1-3.36-5.81V89.35h0Z" transform="translate(0 -14.04)" style="fill:#9ddbee"/><path d="M441.4,120.66V95.46A8.33,8.33,0,0,1,445.12,89l21.65-12.6a8.2,8.2,0,0,1,7.44,0l21.5,12.51a8.45,8.45,0,0,0-3.65-5.68L470.41,70.6a8.21,8.21,0,0,0-7.44,0L441.32,83.2a8.32,8.32,0,0,0-3.72,6.49v25.2a8.32,8.32,0,0,0,3.72,6.49l0.15,0.09A5.71,5.71,0,0,1,441.4,120.66Z" transform="translate(0 -14.04)" style="fill:#4cb0c1"/><path d="M522.16,85.82A7.44,7.44,0,0,1,525.51,80L554,63.57a7.45,7.45,0,0,1,6.71,0L589.18,80a7.44,7.44,0,0,1,3.35,5.81v32.88a7.44,7.44,0,0,1-3.35,5.81L560.7,141a7.47,7.47,0,0,1-6.71,0l-28.48-16.45a7.43,7.43,0,0,1-3.36-5.81V85.82Z" transform="translate(0 -14.04)" style="fill:#2b2c2b"/><path d="M528.29,89.36a7.44,7.44,0,0,1,3.36-5.81L554,70.64a7.45,7.45,0,0,1,6.71,0l22.35,12.9a7.44,7.44,0,0,1,3.36,5.81v25.81a7.45,7.45,0,0,1-3.35,5.81L560.7,133.89a7.44,7.44,0,0,1-6.71,0L531.64,121a7.44,7.44,0,0,1-3.35-5.81V89.36h0Z" transform="translate(0 -14.04)" style="fill:#9ddbee"/><path d="M454.21,52.39S458,39,459.44,39.4s26.4,2.31,42.74,30.59C494.49,59.12,454.21,52.39,454.21,52.39Zm116.53,0S567,39,565.5,39.4,539.1,41.71,522.76,70C530.44,59.12,570.73,52.39,570.73,52.39ZM500.06,188l12.8,22.64L525.67,188l-17.94,1.15Z" transform="translate(0 -14.04)" style="fill:#2b2c2b"/><path d="M526.52,186c0-2.77-6.12-5-13.66-5s-13.66,2.24-13.66,5,6.12,5,13.66,5S526.52,188.78,526.52,186Zm-11.08-51.79a4.85,4.85,0,0,0-6,0l-5.34,4.44c-1.64,1.36-1.23,2.48.9,2.48h14.83c2.13,0,2.54-1.11.9-2.48Zm18,21.58a50.83,50.83,0,0,1-19.47,4,52.52,52.52,0,0,1-22.22-4.59L489,159.83a56.58,56.58,0,0,0,25,5.29,51.87,51.87,0,0,0,21.82-4.56Z" transform="translate(0 -14.04)" style="fill:#2b2c2b"/><path d="M532.1,120.53V95.45A8.28,8.28,0,0,1,535.81,89l21.65-12.54a8.23,8.23,0,0,1,7.44,0L586.39,88.9a8.38,8.38,0,0,0-3.65-5.66L561.1,70.7a8.23,8.23,0,0,0-7.44,0L532,83.24a8.27,8.27,0,0,0-3.72,6.46v25.08a8.27,8.27,0,0,0,3.71,6.46l0.15,0.09A5.69,5.69,0,0,1,532.1,120.53Z" transform="translate(0 -14.04)" style="fill:#4cb0c1"/><path d="M465.38,91.31v10.51l-6.85-8A10.49,10.49,0,1,0,465.38,91.31Zm91.87,0v10.51l-6.84-8A10.5,10.5,0,1,0,557.26,91.31Zm-48.6-.55-11.47,6.68v7l11.47-6.69a7.78,7.78,0,0,1,7.06,0l12,7V97.77l-12-7A7.76,7.76,0,0,0,508.65,90.76Zm0.64,86.42-9.22,5.37v5.58l9.21-5.37a6.27,6.27,0,0,1,5.68,0l9.67,5.63v-5.58L515,177.18A6.25,6.25,0,0,0,509.29,177.18Z" transform="translate(0 -14.04)" style="fill:#2b2c2b"/><path d="M381.09,271.1h-8.5l19-44.69h8.91l19.38,44.69h-8.91l-5.09-12.19H391l2.84-7.19h9l-7-16.78Z" transform="translate(0 -14.04)" style="fill:#666"/><path d="M425.3,271.1V226.41h20Q459,226.41,459,239q0,13.66-18.72,16.53l-1.19-7.37q11.25-2,11.25-8.91,0-5.56-5.56-5.56H433.59V271.1H425.3Z" transform="translate(0 -14.04)" style="fill:#666"/><path d="M472.74,226.41V271.1h-8.28V226.41h8.28Z" transform="translate(0 -14.04)" style="fill:#666"/><path d="M480.36,269.69v-5.62a32.49,32.49,0,0,0,11.39,1.88q7.71,0,7.71-5.16,0-3.75-4.73-3.75h-5.25q-10.29,0-10.29-9.37,0-10.31,14.65-10.31A34.23,34.23,0,0,1,504.5,239v5.63a30.33,30.33,0,0,0-10.66-1.87q-8.44,0-8.44,4.92,0,3.75,4.08,3.75h5.25q10.95,0,10.95,9.38,0,10.55-13.92,10.55A36.71,36.71,0,0,1,480.36,269.69Z" transform="translate(0 -14.04)" style="fill:#666"/><path d="M516,265.36v5.74h-6.21v-5.74H516Z" transform="translate(0 -14.04)" style="fill:#666"/><path d="M548.56,269.55a25.29,25.29,0,0,1-10.15,1.78q-17.74,0-17.74-17.46,0-16.52,18-16.52a27.67,27.67,0,0,1,9.84,1.64v5.63a23.36,23.36,0,0,0-9.37-1.87q-12.07,0-12.07,11.13,0,12.07,11.39,12.07a15.43,15.43,0,0,0,3.84-.56v-9.75h6.21v13.92Z" transform="translate(0 -14.04)" style="fill:#666"/><path d="M554.42,257.93V237.58h6.21v20.34q0,8,8.2,8t8.2-8V237.58h6.21v20.34q0,13.41-14.41,13.41T554.42,257.93Z" transform="translate(0 -14.04)" style="fill:#666"/><path d="M590.28,271.05V237.58h15.23q10.27,0,10.27,9,0,6.07-8,10.05l10.62,14.48h-7.83l-10.2-14.6v-2.84q8.91-1.52,8.91-6.91,0-3.7-4.17-3.7h-8.51v28h-6.33Z" transform="translate(0 -14.04)" style="fill:#666"/><path d="M621.34,257.93V237.58h6.21v20.34q0,8,8.2,8t8.2-8V237.58h6.21v20.34q0,13.41-14.41,13.41T621.34,257.93Z" transform="translate(0 -14.04)" style="fill:#666"/><path d="M377.06,280.68h1.38l3,16.87,5.87-16.87h1.33l6,17,3.36-17h1.28l-3.67,18.15h-1.93l-5.74-16.58-5.75,16.58H380.3Z" transform="translate(0 -14.04)"/><path d="M404.09,280.68v1.52H402.5v-1.52h1.59ZM404,285.51v13.33h-1.33V285.51H404Z" transform="translate(0 -14.04)"/><path d="M408.15,298.84V280.68h1.33v6a11.23,11.23,0,0,1,5.12-1.17q4.72,0,4.72,3.85,0,2.92-4.19,4l4.52,5.5h-2l-4.24-5.52v-0.8Q418,292,418,289.34t-3.68-2.69a10.63,10.63,0,0,0-4.82,1.19v11h-1.33Z" transform="translate(0 -14.04)"/><path d="M424,280.68v1.52h-1.59v-1.52H424Zm-0.13,4.82v13.33h-1.33V285.51h1.33Z" transform="translate(0 -14.04)"/><path d="M428.23,286.05a21.88,21.88,0,0,1,5.1-.55q6.41,0,6.41,6.33,0,7-6.45,7a13.35,13.35,0,0,1-3.73-.63v5.46h-1.33V286.05Zm1.33,10.83a11.64,11.64,0,0,0,3.72.69q5.17,0,5.17-5.75,0-5.12-5.14-5.12a24.51,24.51,0,0,0-3.75.3v9.88Z" transform="translate(0 -14.04)"/><path d="M448.54,285.51q5.47,0,5.47,6.06c0,0.29,0,.59,0,0.9H443.87q0,5.23,5.54,5.23a11.9,11.9,0,0,0,4-.63v1.14a11.9,11.9,0,0,1-4,.63q-6.87,0-6.87-6.82Q442.53,285.51,448.54,285.51Zm-4.67,5.76h8.86q-0.08-4.65-4.19-4.65Q444.09,286.62,443.87,291.27Z" transform="translate(0 -14.04)"/><path d="M468.48,298a16,16,0,0,1-5.47.8q-6.21,0-6.21-6.93,0-6.4,6.32-6.4a13.53,13.53,0,0,1,4,.63v-5.46h1.33V298Zm-1.33-10.7a11.89,11.89,0,0,0-4-.69q-4.91,0-4.91,5.17,0,5.83,4.91,5.83a16.08,16.08,0,0,0,4-.5v-9.81Z" transform="translate(0 -14.04)"/><path d="M474.26,280.68v1.52h-1.59v-1.52h1.59Zm-0.13,4.82v13.33H472.8V285.51h1.33Z" transform="translate(0 -14.04)"/><path d="M477.69,295.07q0-4,5.28-4a33.68,33.68,0,0,1,4,.25v-1.64q0-3.06-3.85-3.06a15.32,15.32,0,0,0-4.34.63v-1.14a15.32,15.32,0,0,1,4.34-.63q5.18,0,5.18,4.14v9.19h-0.81l-0.3-1.32a10.37,10.37,0,0,1-4.85,1.32Q477.69,298.84,477.69,295.07Zm5.28-2.83q-3.95,0-3.95,2.79t3.3,2.67A9,9,0,0,0,487,296.4v-3.91A33.68,33.68,0,0,0,483,292.24Z" transform="translate(0 -14.04)"/><path d="M498.7,298.84v-14q0-4.84,5.36-4.84a8.28,8.28,0,0,1,3,.51v1.14a7.94,7.94,0,0,0-3-.51q-4,0-4,3.72v0.62h5v1.14h-5v12.19H498.7Z" transform="translate(0 -14.04)"/><path d="M506.14,292.17q0-6.79,6.22-6.79t6.22,6.79q0,6.78-6.22,6.78T506.14,292.17Zm6.22,5.65q4.89,0,4.89-5.7t-4.89-5.6q-4.89,0-4.89,5.6T512.36,297.82Z" transform="translate(0 -14.04)"/><path d="M522,298.84V285.51h1l0.17,2.21a6,6,0,0,1,4.47-2.21v1.07a5.4,5.4,0,0,0-4.25,2.32v9.94H522Z" transform="translate(0 -14.04)"/><path d="M534.83,280.68h1.38l3,16.87L545,280.68h1.33l6,17,3.36-17H557l-3.67,18.15h-1.93l-5.74-16.58L540,298.84h-1.89Z" transform="translate(0 -14.04)"/><path d="M572.06,280.68v1.14H561.48v7.24h10.16v1.14H561.48v7.49h10.77v1.14h-12.1V280.68h11.92Z" transform="translate(0 -14.04)"/><path d="M576,298.84V280.68h7.74q5.18,0,5.18,4.23,0,3.1-3.76,4.43,4,0.67,4,4.25,0,5.24-5.67,5.24H576Zm7.34-1.14q4.39,0,4.39-4.06,0-3.59-5.5-3.59h-1v-0.9q6.35-.57,6.35-4.14,0-3.17-3.91-3.17h-6.32v15.87h6Z" transform="translate(0 -14.04)"/><path d="M599.05,298.84h-1.42l8.21-18.15h1.59l8.25,18.15H614.1l-2.69-6.09h-7.63l0.52-1.14h6.61l-4.35-9.88Z" transform="translate(0 -14.04)"/><path d="M618.16,298.84V280.68h7.62q5.31,0,5.31,5t-8.49,6.26l-0.23-1.22q7.24-1,7.24-4.94t-4-3.91h-6.07v17h-1.33Z" transform="translate(0 -14.04)"/><path d="M636.16,280.68v18.15h-1.33V280.68h1.33Z" transform="translate(0 -14.04)"/><path d="M640.61,298.2v-1.27a13.41,13.41,0,0,0,4.37.76q4.2,0,4.2-2.67,0-2.16-3.11-2.16h-1.7q-4.19,0-4.19-3.55,0-3.81,5.55-3.81a15.82,15.82,0,0,1,4.35.63v1.27a13.38,13.38,0,0,0-4.35-.76q-4.21,0-4.21,2.67,0,2.29,2.86,2.29h1.7q4.44,0,4.44,3.43,0,3.81-5.54,3.81A15.86,15.86,0,0,1,640.61,298.2Z" transform="translate(0 -14.04)"/></svg>