<?xml version="1.0" encoding="utf-8"?>
<!-- Generator: Adobe Illustrator 19.2.1, SVG Export Plug-In . SVG Version: 6.00 Build 0)  -->
<svg version="1.1" xmlns="http://www.w3.org/2000/svg" xmlns:xlink="http://www.w3.org/1999/xlink" x="0px" y="0px"
	 viewBox="0 0 506.1 92.8" style="enable-background:new 0 0 506.1 92.8;" xml:space="preserve">
<style type="text/css">
	.st0{fill:#F5B71A;enable-background:new    ;}
	.st1{fill:#F7D16E;enable-background:new    ;}
	.st2{fill:#9DD4E1;enable-background:new    ;}
	.st3{fill:#F0F9FB;enable-background:new    ;}
	.st4{fill:#FEF4DE;enable-background:new    ;}
</style>
<g id="Layer_2">
	<path id="XMLID_5_" class="st0" d="M192.4,25.5c0-0.3,0.2-0.7,0.5-0.9l3.4-2c0.3-0.2,0.8-0.2,1.1,0l3.4,2c0.3,0.2,0.5,0.6,0.5,0.9
		v4c0,0.3-0.2,0.7-0.5,0.9l-3.4,2c-0.3,0.2-0.8,0.2-1.1,0l-3.4-2c-0.3-0.2-0.5-0.6-0.5-0.9V25.5L192.4,25.5z"/>
	<path id="XMLID_2_" class="st0" d="M154.2,65.4c0-0.2,0.1-0.4,0.3-0.5l2.1-1.2c0.2-0.1,0.5-0.1,0.6,0l2.1,1.2
		c0.2,0.1,0.3,0.3,0.3,0.5v2.4c0,0.2-0.1,0.4-0.3,0.5l-2.1,1.2c-0.2,0.1-0.5,0.1-0.6,0l-2.1-1.2c-0.2-0.1-0.3-0.3-0.3-0.5V65.4
		L154.2,65.4z"/>
	<path id="XMLID_3_" class="st0" d="M436.8,54.8c0-0.2,0.1-0.4,0.3-0.5l2.1-1.2c0.2-0.1,0.5-0.1,0.6,0l2.1,1.2
		c0.2,0.1,0.3,0.3,0.3,0.5v2.4c0,0.2-0.1,0.4-0.3,0.5l-2.1,1.2c-0.2,0.1-0.5,0.1-0.6,0l-2.1-1.2c-0.2-0.1-0.3-0.3-0.3-0.5V54.8
		L436.8,54.8z"/>
	<path id="XMLID_1_" class="st0" d="M64.9,57.9c0-0.3,0.2-0.6,0.4-0.7l2.7-1.6c0.2-0.1,0.6-0.1,0.8,0l2.7,1.6
		c0.2,0.1,0.4,0.5,0.4,0.7V61c0,0.3-0.2,0.6-0.4,0.7l-2.7,1.6c-0.2,0.1-0.6,0.1-0.8,0l-2.7-1.6c-0.2-0.1-0.4-0.5-0.4-0.7V57.9
		L64.9,57.9z"/>
</g>
<g id="Layer_3">
	<path id="XMLID_4_" class="st1" d="M53,17.4c0-0.4,0.3-0.8,0.6-1l3.9-2.3c0.3-0.2,0.9-0.2,1.2,0l3.9,2.3c0.3,0.2,0.6,0.7,0.6,1v4.5
		c0,0.4-0.3,0.8-0.6,1l-3.9,2.3c-0.3,0.2-0.9,0.2-1.2,0L53.6,23c-0.3-0.2-0.6-0.7-0.6-1V17.4L53,17.4z"/>
	<path id="XMLID_30_" class="st1" d="M109.9,85.5c0-0.2,0.1-0.4,0.3-0.5l2-1.1c0.2-0.1,0.4-0.1,0.6,0l2,1.1c0.2,0.1,0.3,0.3,0.3,0.5
		v2.3c0,0.2-0.1,0.4-0.3,0.5l-2,1.1c-0.2,0.1-0.4,0.1-0.6,0l-2-1.1c-0.2-0.1-0.3-0.3-0.3-0.5V85.5L109.9,85.5z"/>
	<path id="XMLID_7_" class="st1" d="M383.2,22.2c0-0.3,0.2-0.7,0.5-0.8l3.2-1.9c0.3-0.1,0.7-0.1,1,0l3.2,1.9
		c0.3,0.1,0.5,0.5,0.5,0.8V26c0,0.3-0.2,0.7-0.5,0.8l-3.2,1.9c-0.3,0.1-0.7,0.1-1,0l-3.2-1.8c-0.3-0.1-0.5-0.5-0.5-0.8V22.2
		L383.2,22.2z"/>
	<path id="XMLID_8_" class="st1" d="M499.2,61.7c0-0.2,0.2-0.6,0.4-0.7l2.6-1.5c0.2-0.1,0.6-0.1,0.8,0l2.6,1.5
		c0.2,0.1,0.4,0.4,0.4,0.7v3.1c0,0.2-0.2,0.6-0.4,0.7L503,67c-0.2,0.1-0.6,0.1-0.8,0l-2.6-1.5c-0.2-0.1-0.4-0.4-0.4-0.7V61.7
		L499.2,61.7z"/>
</g>
<g id="Layer_4">
	<path id="XMLID_9_" class="st2" d="M49,89.2c0-0.2,0.1-0.4,0.3-0.5l1.8-1c0.1-0.1,0.4-0.1,0.5,0l1.8,1c0.1,0.1,0.3,0.3,0.3,0.5v2.1
		c0,0.2-0.1,0.4-0.3,0.5l-1.8,1c-0.1,0.1-0.4,0.1-0.5,0l-1.8-1c-0.1-0.1-0.3-0.3-0.3-0.5V89.2L49,89.2z"/>
	<path id="XMLID_10_" class="st2" d="M119.9,36.6c0-0.2,0.2-0.5,0.4-0.6l2.5-1.4c0.2-0.1,0.6-0.1,0.8,0L126,36
		c0.2,0.1,0.4,0.4,0.4,0.6v2.9c0,0.2-0.2,0.5-0.4,0.6l-2.5,1.4c-0.2,0.1-0.6,0.1-0.8,0l-2.5-1.4c-0.2-0.1-0.4-0.4-0.4-0.6V36.6
		L119.9,36.6z"/>
	<path id="XMLID_11_" class="st2" d="M408.5,77.9c0-0.3,0.2-0.7,0.5-0.8l3.1-1.8c0.3-0.1,0.7-0.1,1,0l3.1,1.8
		c0.3,0.1,0.5,0.5,0.5,0.8v3.6c0,0.3-0.2,0.7-0.5,0.8l-3.1,1.8c-0.3,0.1-0.7,0.1-1,0l-3.1-1.8c-0.3-0.1-0.5-0.5-0.5-0.8V77.9
		L408.5,77.9z"/>
	<path id="XMLID_12_" class="st2" d="M449.3,13.1c0-0.2,0.1-0.4,0.3-0.5l2.1-1.2c0.2-0.1,0.5-0.1,0.6,0l2.1,1.2
		c0.2,0.1,0.3,0.3,0.3,0.5v2.4c0,0.2-0.1,0.4-0.3,0.5l-2.1,1.2c-0.2,0.1-0.5,0.1-0.6,0l-2.1-1.2c-0.2-0.1-0.3-0.3-0.3-0.5V13.1
		L449.3,13.1z"/>
</g>
<g id="Layer_5">
	<path id="XMLID_13_" class="st3" d="M316.8,48.5c0-0.2,0.2-0.5,0.4-0.7l2.5-1.5c0.2-0.1,0.6-0.1,0.8,0l2.5,1.5
		c0.2,0.1,0.4,0.4,0.4,0.7v2.9c0,0.2-0.2,0.5-0.4,0.7l-2.5,1.5c-0.2,0.1-0.6,0.1-0.8,0l-2.5-1.4c-0.2-0.1-0.4-0.4-0.4-0.7V48.5
		L316.8,48.5z"/>
	<path id="XMLID_28_" class="st3" d="M143.2,21.1c0-0.3,0.2-0.8,0.6-1l3.8-2.2c0.3-0.2,0.8-0.2,1.2,0l3.8,2.2c0.3,0.2,0.6,0.6,0.6,1
		v4.4c0,0.3-0.2,0.8-0.6,1l-3.8,2.2c-0.3,0.2-0.8,0.2-1.2,0l-3.8-2.2c-0.3-0.2-0.6-0.6-0.6-1V21.1L143.2,21.1z"/>
	<path id="XMLID_27_" class="st3" d="M84.7,40.6c0-0.2,0.2-0.5,0.4-0.7l2.6-1.5c0.2-0.1,0.6-0.1,0.8,0l2.6,1.5
		c0.2,0.1,0.4,0.4,0.4,0.7v3c0,0.2-0.2,0.5-0.4,0.7l-2.6,1.5c-0.2,0.1-0.6,0.1-0.8,0l-2.6-1.5c-0.2-0.1-0.4-0.4-0.4-0.7V40.6
		L84.7,40.6z"/>
	<path id="XMLID_16_" class="st3" d="M471.6,85.9c0-0.2,0.1-0.4,0.3-0.5l2-1.2c0.2-0.1,0.4-0.1,0.6,0l2,1.2c0.2,0.1,0.3,0.3,0.3,0.5
		v2.3c0,0.2-0.1,0.4-0.3,0.5l-2,1.2c-0.2,0.1-0.4,0.1-0.6,0l-2-1.2c-0.2-0.1-0.3-0.3-0.3-0.5V85.9L471.6,85.9z"/>
</g>
<g id="Layer_6">
	<path id="XMLID_17_" class="st4" d="M358,69.3c0-0.3,0.2-0.8,0.6-1l3.7-2.2c0.3-0.2,0.8-0.2,1.1,0l3.7,2.2c0.3,0.2,0.6,0.6,0.6,1
		v4.3c0,0.3-0.2,0.8-0.6,1l-3.7,2.2c-0.3,0.2-0.8,0.2-1.1,0l-3.7-2.1c-0.3-0.2-0.6-0.6-0.6-1V69.3L358,69.3z"/>
	<path id="XMLID_18_" class="st4" d="M409.3,35.8c0-0.2,0.2-0.5,0.4-0.6l2.5-1.5c0.2-0.1,0.6-0.1,0.8,0l2.5,1.5
		c0.2,0.1,0.4,0.4,0.4,0.6v2.9c0,0.2-0.2,0.5-0.4,0.6l-2.5,1.5c-0.2,0.1-0.6,0.1-0.8,0l-2.5-1.4c-0.2-0.1-0.4-0.4-0.4-0.6V35.8
		L409.3,35.8z"/>
	<path id="XMLID_19_" class="st4" d="M492.3,27.5c0-0.2,0.2-0.5,0.4-0.6l2.5-1.5c0.2-0.1,0.6-0.1,0.8,0l2.5,1.5
		c0.2,0.1,0.4,0.4,0.4,0.6v2.9c0,0.2-0.2,0.5-0.4,0.6l-2.5,1.5c-0.2,0.1-0.6,0.1-0.8,0l-2.5-1.4c-0.2-0.1-0.4-0.4-0.4-0.6V27.5
		L492.3,27.5z"/>
	<path id="XMLID_20_" class="st4" d="M19.9,37.8c0-0.2,0.2-0.5,0.4-0.6l2.5-1.5c0.2-0.1,0.6-0.1,0.8,0l2.5,1.5
		c0.2,0.1,0.4,0.4,0.4,0.6v2.9c0,0.2-0.2,0.5-0.4,0.6l-2.5,1.5c-0.2,0.1-0.6,0.1-0.8,0l-2.5-1.4c-0.2-0.1-0.4-0.4-0.4-0.6V37.8
		L19.9,37.8z"/>
	<path id="XMLID_23_" class="st4" d="M346.4,27.7c0-0.2,0.1-0.4,0.3-0.5l1.9-1.1c0.2-0.1,0.4-0.1,0.6,0l1.9,1.1
		c0.2,0.1,0.3,0.3,0.3,0.5v2.2c0,0.2-0.1,0.4-0.3,0.5l-1.9,1.1c-0.2,0.1-0.4,0.1-0.6,0l-1.9-1.1c-0.2-0.1-0.3-0.3-0.3-0.5V27.7
		L346.4,27.7z"/>
	<path id="XMLID_21_" class="st4" d="M0,75c0-0.4,0.3-0.9,0.6-1l4-2.3c0.3-0.2,0.9-0.2,1.2,0l4,2.3c0.3,0.2,0.6,0.7,0.6,1v4.6
		c0,0.4-0.3,0.9-0.6,1l-4,2.3c-0.3,0.2-0.9,0.2-1.2,0l-4-2.3C0.3,80.5,0,80,0,79.6V75L0,75z"/>
	<path id="XMLID_22_" class="st4" d="M185.9,56.7c0-0.4,0.3-0.9,0.6-1l4-2.3c0.3-0.2,0.9-0.2,1.2,0l4,2.3c0.3,0.2,0.6,0.7,0.6,1v4.6
		c0,0.4-0.3,0.9-0.6,1l-4,2.3c-0.3,0.2-0.9,0.2-1.2,0l-4-2.3c-0.3-0.2-0.6-0.7-0.6-1V56.7L185.9,56.7z"/>
	<path id="XMLID_24_" class="st4" d="M106.7,62.1c0-0.2,0.2-0.5,0.4-0.6l2.4-1.4c0.2-0.1,0.5-0.1,0.7,0l2.4,1.4
		c0.2,0.1,0.4,0.4,0.4,0.6V65c0,0.2-0.2,0.5-0.4,0.6l-2.4,1.4c-0.2,0.1-0.5,0.1-0.7,0l-2.4-1.4c-0.2-0.1-0.4-0.4-0.4-0.6V62.1
		L106.7,62.1z"/>
</g>
</svg>
