<svg xmlns="http://www.w3.org/2000/svg" xmlns:xlink="http://www.w3.org/1999/xlink" viewBox="0 0 161.07 166.74"><defs><linearGradient id="a" x1="162.97" y1="1341.53" x2="73.8" y2="1341.53" gradientTransform="translate(0 -1248)" gradientUnits="userSpaceOnUse"><stop offset="0" stop-color="#fec017"/><stop offset="1" stop-color="#f89923"/></linearGradient></defs><title>logo-sad</title><path d="M34,62.61A14.89,14.89,0,0,1,40.73,51L94.28,20.07a14.87,14.87,0,0,1,13.42,0L161.26,51A14.89,14.89,0,0,1,168,62.61v61.84a14.88,14.88,0,0,1-6.71,11.62L107.7,167a14.88,14.88,0,0,1-13.42,0L40.73,136.06A14.88,14.88,0,0,1,34,124.44V62.61Z" transform="translate(-20 -18.47)" style="fill:#2b2c2b"/><path d="M40.3,66.23A14.89,14.89,0,0,1,47,54.61l47.28-27.3a14.88,14.88,0,0,1,13.42,0L155,54.61a14.88,14.88,0,0,1,6.71,11.62v54.59A14.88,14.88,0,0,1,155,132.44l-47.28,27.3a14.88,14.88,0,0,1-13.42,0L47,132.44a14.88,14.88,0,0,1-6.71-11.62V66.23Z" transform="translate(-20 -18.47)" style="fill:#fed16e"/><path d="M155,54.61L107.7,27.31a13.74,13.74,0,0,0-6.71-1.6V161.34a13.73,13.73,0,0,0,6.71-1.6L155,132.44a14.87,14.87,0,0,0,6.71-11.62V66.23A14.88,14.88,0,0,0,155,54.61h0Z" transform="translate(-20 -18.47)" style="fill:url(#a)"/><path d="M20,60.43a7.44,7.44,0,0,1,3.35-5.81L51.83,38.18a7.45,7.45,0,0,1,6.71,0L87,54.62a7.44,7.44,0,0,1,3.36,5.81V93.32A7.44,7.44,0,0,1,87,99.13L58.54,115.57a7.47,7.47,0,0,1-6.71,0L23.35,99.13A7.44,7.44,0,0,1,20,93.31V60.43Z" transform="translate(-20 -18.47)" style="fill:#2b2c2b"/><path d="M26.11,64a7.43,7.43,0,0,1,3.36-5.81L51.83,45.23a7.44,7.44,0,0,1,6.71,0L80.92,58.15A7.44,7.44,0,0,1,84.28,64V89.79a7.44,7.44,0,0,1-3.35,5.81L58.54,108.52a7.46,7.46,0,0,1-6.71,0L29.47,95.6a7.43,7.43,0,0,1-3.36-5.81V64h0Z" transform="translate(-20 -18.47)" style="fill:#9ddbee"/><path d="M29.94,95.27V70.07a8.33,8.33,0,0,1,3.72-6.49L55.3,51a8.2,8.2,0,0,1,7.44,0l21.5,12.51a8.45,8.45,0,0,0-3.65-5.68L58.94,45.21a8.21,8.21,0,0,0-7.44,0L29.86,57.81a8.32,8.32,0,0,0-3.72,6.49V89.5A8.32,8.32,0,0,0,29.86,96L30,96.08A5.71,5.71,0,0,1,29.94,95.27Z" transform="translate(-20 -18.47)" style="fill:#4cb0c1"/><path d="M110.69,60.43A7.44,7.44,0,0,1,114,54.62l28.48-16.44a7.45,7.45,0,0,1,6.71,0l28.48,16.44a7.44,7.44,0,0,1,3.35,5.81V93.32a7.44,7.44,0,0,1-3.35,5.81l-28.48,16.45a7.47,7.47,0,0,1-6.71,0L114,99.13a7.43,7.43,0,0,1-3.36-5.81V60.43Z" transform="translate(-20 -18.47)" style="fill:#2b2c2b"/><path d="M116.82,64a7.44,7.44,0,0,1,3.36-5.81l22.35-12.9a7.45,7.45,0,0,1,6.71,0l22.35,12.9A7.44,7.44,0,0,1,174.94,64V89.78a7.45,7.45,0,0,1-3.35,5.81l-22.35,12.91a7.44,7.44,0,0,1-6.71,0L120.17,95.59a7.44,7.44,0,0,1-3.35-5.81V64h0Z" transform="translate(-20 -18.47)" style="fill:#9ddbee"/><path d="M43.15,39.41s-2.13-13.76-.62-14,25-8.84,51.57,10.12C82.6,28.84,43.15,39.41,43.15,39.41Zm115.09,0.37s2.28-13.74.78-14-24.88-9.13-51.68,9.53C118.91,28.75,158.24,39.78,158.24,39.78ZM88.59,162.57l12.8,22.64,12.81-22.64-17.94,1.15Z" transform="translate(-20 -18.47)" style="fill:#2b2c2b"/><path d="M115.06,160.62c0-2.77-6.12-5-13.66-5s-13.66,2.24-13.66,5,6.12,5,13.66,5S115.06,163.39,115.06,160.62ZM104,108.83a4.85,4.85,0,0,0-6,0l-5.34,4.44c-1.64,1.36-1.23,2.48.9,2.48h14.83c2.13,0,2.54-1.11.9-2.48Zm20.44,25.55a51.87,51.87,0,0,0-21.82-4.56,56.58,56.58,0,0,0-25,5.29l2.73,4.62a52.52,52.52,0,0,1,22.22-4.59,50.83,50.83,0,0,1,19.47,4Z" transform="translate(-20 -18.47)" style="fill:#2b2c2b"/><path d="M120.63,95.14V70.06a8.28,8.28,0,0,1,3.71-6.46L146,51.05a8.23,8.23,0,0,1,7.44,0l21.49,12.46a8.38,8.38,0,0,0-3.65-5.66L149.63,45.31a8.23,8.23,0,0,0-7.44,0L120.55,57.85a8.27,8.27,0,0,0-3.72,6.46V89.39a8.27,8.27,0,0,0,3.71,6.46l0.15,0.09A5.69,5.69,0,0,1,120.63,95.14Z" transform="translate(-20 -18.47)" style="fill:#4cb0c1"/><path d="M47.81,85l6.1-8.56,1,10.46A10.49,10.49,0,1,0,47.81,85Zm94.25,1.27,3.73-9.83,3.57,9.88A10.5,10.5,0,1,0,142.06,86.25ZM97.19,65.36L85.71,72v7l11.47-6.69a7.78,7.78,0,0,1,7.06,0l12,7V72.37l-12-7A7.76,7.76,0,0,0,97.19,65.36Zm0.64,86.42-9.22,5.37v5.58l9.21-5.37a6.27,6.27,0,0,1,5.68,0l9.67,5.63v-5.58l-9.67-5.63A6.25,6.25,0,0,0,97.83,151.79Z" transform="translate(-20 -18.47)" style="fill:#2b2c2b"/></svg>