<?xml version="1.0" encoding="utf-8"?>
<!-- Generator: Adobe Illustrator 21.0.2, SVG Export Plug-In . SVG Version: 6.00 Build 0)  -->
<svg version="1.1" id="Layer_1" xmlns="http://www.w3.org/2000/svg" xmlns:xlink="http://www.w3.org/1999/xlink" x="0px" y="0px"
	 viewBox="0 0 110.9 105.6" style="enable-background:new 0 0 110.9 105.6;" xml:space="preserve">
<style type="text/css">
	.st0{fill:#5689A3;}
</style>
<path class="st0" d="M110.9,40.2c-0.2-0.6-0.8-1-1.4-1H69.3L56.9,1c-0.2-0.6-0.8-1-1.4-1S54.2,0.4,54,1L41.6,39.2H1.5
	c-0.6,0-1.2,0.4-1.4,1c-0.2,0.6,0,1.3,0.5,1.7l32.5,23.6l-12.4,38.2c-0.2,0.6,0,1.3,0.5,1.7c0.5,0.4,1.2,0.4,1.8,0l32.5-23.6
	l32.5,23.6c0.3,0.2,0.6,0.3,0.9,0.3s0.6-0.1,0.9-0.3c0.5-0.4,0.7-1.1,0.5-1.7L77.8,65.5l32.5-23.6C110.8,41.5,111.1,40.9,110.9,40.2
	z"/>
</svg>
