<svg xmlns="http://www.w3.org/2000/svg" viewBox="0 0 92.5 90"><path fill="#F7D16F" d="M7.4 66.7V26.5L42.3 6.4l34.8 20.1v40.2L42.3 86.8z"/><path fill="#5A6160" d="M42.1 92.5c-2.7 0-5.3-.6-7.5-1.8L7.5 75.2C3.2 72.8 0 67.3 0 62.1V30.7c0-5.1 3.2-10.6 7.5-13.1L34.6 1.8c4.4-2.4 10.7-2.4 15 0l.1.1 26.9 15.7c4.4 2.5 7.5 7.9 7.5 13.1v31.2c0 5.1-3.2 10.6-7.5 13.1l-27 15.7c-2.2 1.2-4.8 1.8-7.5 1.8zm-.8-14c.4.1 1.2.1 1.6 0l26.8-15.6c.2-.2.5-.8.6-1.1v-31c-.1-.3-.3-.8-.6-1.1L42.9 14.1c-.4-.1-1.2-.1-1.6 0L14.6 29.7c-.2.2-.5.8-.6 1.1V62c.1.3.3.8.6 1.1l26.7 15.4zM14.6 63.1zm-.2-.1zm55.8-32.2zm-55.6-1.1zm55 0z"/></svg>