<svg id="Layer_1" xmlns="http://www.w3.org/2000/svg" xmlns:xlink="http://www.w3.org/1999/xlink" viewBox="0 0 117.4 152.5"><style>.st0{fill:#f7d171}.st1,.st2,.st3{clip-path:url(#SVGID_2_);fill:#f6c01a}.st2,.st3{fill:#f6bf1a}.st3{fill:#f6be1b}.st4,.st5,.st6,.st7,.st8{clip-path:url(#SVGID_2_);fill:#f6bd1b}.st5,.st6,.st7,.st8{fill:#f6bc1b}.st6,.st7,.st8{fill:#f6bc1c}.st7,.st8{fill:#f5bb1c}.st8{fill:#f5ba1c}.st10,.st11,.st12,.st13,.st9{clip-path:url(#SVGID_2_);fill:#f5b91d}.st10,.st11,.st12,.st13{fill:#f5b81d}.st11,.st12,.st13{fill:#f5b71d}.st12,.st13{fill:#f5b71e}.st13{fill:#f5b61e}.st14,.st15,.st16,.st17,.st18{clip-path:url(#SVGID_2_);fill:#f5b51e}.st15,.st16,.st17,.st18{fill:#f5b41e}.st16,.st17,.st18{fill:#f5b41f}.st17,.st18{fill:#f5b31f}.st18{fill:#f5b21f}.st19,.st20,.st21,.st22,.st23{clip-path:url(#SVGID_2_);fill:#f5b120}.st20,.st21,.st22,.st23{fill:#f4b020}.st21,.st22,.st23{fill:#f4af20}.st22,.st23{fill:#f4ae21}.st23{fill:#f4ad21}.st24,.st25,.st26,.st27,.st28{clip-path:url(#SVGID_2_);fill:#f4ac21}.st25,.st26,.st27,.st28{fill:#f4ab21}.st26,.st27,.st28{fill:#f4aa22}.st27,.st28{fill:#f4a922}.st28{fill:#f4a822}.st29,.st30,.st31,.st32,.st33{clip-path:url(#SVGID_2_);fill:#f4a723}.st30,.st31,.st32,.st33{fill:#f4a623}.st31,.st32,.st33{fill:#f4a523}.st32,.st33{fill:#f4a423}.st33{fill:#f3a323}.st34,.st35,.st36,.st37,.st38{clip-path:url(#SVGID_2_);fill:#f3a224}.st35,.st36,.st37,.st38{fill:#f3a124}.st36,.st37,.st38{fill:#f3a024}.st37,.st38{fill:#f39f24}.st38{fill:#f39e24}.st39,.st40,.st41,.st42,.st43{clip-path:url(#SVGID_2_);fill:#f39d25}.st40,.st41,.st42,.st43{fill:#f39c25}.st41,.st42,.st43{fill:#f39b25}.st42,.st43{fill:#f39a25}.st43{fill:#f39925}.st44{enable-background:new}.st45{fill:#5b6261}.st46{fill:#9ed5e2}.st47{fill:#4aadbe}.st48{fill:#5c6361}</style><path class="st0" d="M2.6 61.8V21.6L37.4 1.5l34.8 20.1v40.2L37.4 81.9z"/><defs><path id="SVGID_1_" d="M37.2 1l34.9 20.1v40.2L37.2 81.4"/></defs><clipPath id="SVGID_2_"><use xlink:href="#SVGID_1_" overflow="visible"/></clipPath><path class="st1" d="M37.2 1v80.4V1zM37.2 1h.6v80.4h-.6z"/><path class="st2" d="M37.9 1h.6v80.4h-.6z"/><path class="st3" d="M38.5 1h.6v80.4h-.6zM39.1 1h.6v80.4h-.6z"/><path class="st4" d="M39.8 1h.6v80.4h-.6z"/><path class="st5" d="M40.4 1h.6v80.4h-.6z"/><path class="st6" d="M41 1h.6v80.4H41z"/><path class="st7" d="M41.7 1h.6v80.4h-.6z"/><path class="st8" d="M42.3 1h.6v80.4h-.6z"/><path class="st9" d="M42.9 1h.6v80.4h-.6zM43.6 1h.6v80.4h-.6z"/><path class="st10" d="M44.2 1h.6v80.4h-.6z"/><path class="st11" d="M44.8 1h.6v80.4h-.6z"/><path class="st12" d="M45.5 1h.6v80.4h-.6z"/><path class="st13" d="M46.1 1h.6v80.4h-.6z"/><path class="st14" d="M46.7 1h.6v80.4h-.6z"/><path class="st15" d="M47.4 1h.6v80.4h-.6z"/><path class="st16" d="M48 1h.6v80.4H48z"/><path class="st17" d="M48.6 1h.6v80.4h-.6z"/><path class="st18" d="M49.3 1h.6v80.4h-.6zM49.9 1h.6v80.4h-.6z"/><path class="st19" d="M50.5 1h.6v80.4h-.6z"/><path class="st20" d="M51.2 1h.6v80.4h-.6z"/><path class="st21" d="M51.8 1h.6v80.4h-.6zM52.4 1h.6v80.4h-.6z"/><path class="st22" d="M53.1 1h.6v80.4h-.6z"/><path class="st23" d="M53.7 1h.6v80.4h-.6z"/><path class="st23" d="M54.3 1h.6v80.4h-.6z"/><path class="st24" d="M55 1h.6v80.4H55z"/><path class="st25" d="M55.6 1h.6v80.4h-.6z"/><path class="st26" d="M56.2 1h.6v80.4h-.6zM56.9 1h.6v80.4h-.6z"/><path class="st27" d="M57.5 1h.6v80.4h-.6z"/><path class="st28" d="M58.1 1h.6v80.4h-.6zM58.8 1h.6v80.4h-.6z"/><path class="st29" d="M59.4 1h.6v80.4h-.6z"/><path class="st30" d="M60 1h.6v80.4H60z"/><path class="st31" d="M60.7 1h.6v80.4h-.6z"/><path class="st31" d="M61.3 1h.6v80.4h-.6z"/><path class="st32" d="M61.9 1h.6v80.4h-.6z"/><path class="st33" d="M62.6 1h.6v80.4h-.6zM63.2 1h.6v80.4h-.6z"/><path class="st34" d="M63.8 1h.6v80.4h-.6z"/><path class="st35" d="M64.5 1h.6v80.4h-.6z"/><path class="st36" d="M65.1 1h.6v80.4h-.6zM65.7 1h.6v80.4h-.6z"/><path class="st37" d="M66.4 1h.6v80.4h-.6z"/><path class="st38" d="M67 1h.6v80.4H67zM67.6 1h.6v80.4h-.6z"/><path class="st39" d="M68.3 1h.6v80.4h-.6z"/><path class="st40" d="M68.9 1h.6v80.4h-.6zM69.5 1h.6v80.4h-.6z"/><path class="st41" d="M70.2 1h.6v80.4h-.6z"/><path class="st42" d="M70.8 1h.6v80.4h-.6z"/><path class="st43" d="M71.4 1h.6v80.4h-.6zM72.1 81.4V1v80.4z"/><g id="XMLID_5_" class="st44"><path class="st45" d="M37.2 82.8c-1.9 0-3.7-.4-5.1-1.2l-27-15.5C2.2 64.5 0 60.6 0 57.3V25.8c0-3.4 2.2-7.3 5.1-8.9L32 1.2c2.9-1.6 7.5-1.6 10.4 0l27 15.8c2.8 1.6 5.1 5.5 5.1 8.8V57c0 3.4-2.2 7.3-5.1 8.9l-27 15.7c-1.4.8-3.3 1.2-5.2 1.2zm0-78.5c-1.1 0-2.3.2-3.1.7L7.2 20.6c-1.5.9-2.9 3.3-2.9 5.1v31.5c0 1.8 1.4 4.3 2.9 5.1l27 15.5c1.6.9 4.5.9 6.1 0l26.9-15.7c1.5-.8 2.9-3.3 2.9-5.1V25.8c0-1.8-1.4-4.3-2.9-5.1l-27-15.8c-.7-.4-1.8-.6-3-.6z"/></g><g><path class="st46" d="M44.3 132.2L43.7 92l34.5-20.6L113.3 91l.6 40.2-34.5 20.6z"/></g><g><path class="st47" d="M78 70.9l35.1 19.6.6 40.2-34.5 20.6"/></g><g id="XMLID_1_" class="st44"><path class="st45" d="M78.8 152.5c-1.8 0-3.6-.4-5-1.2l-27.1-15.4c-2.9-1.7-5.2-5.6-5.2-8.9l-.1-31.1c-.1-3.2 2.2-7.1 5.1-8.8l27.2-15.8c2.9-1.7 7.4-1.7 10.2 0L111 86.5c2.9 1.7 5.2 5.6 5.2 8.9l-.1 31.3c.1 3.2-2.2 7.1-5.1 8.8l-27 15.7c-1.4.8-3.3 1.3-5.2 1.3zm-3-77.7L48.6 90.6c-1.6.9-3 3.4-3 5.1l.1 31.1c0 1.8 1.5 4.4 3.1 5.3L76 147.5c1.5.9 4.4.9 5.9 0l27-15.7c1.6-.9 3-3.4 3-5.1l.1-31.3c0-1.8-1.5-4.3-3.1-5.3L81.8 74.8c-1.5-.9-4.4-.9-6 0z"/></g><g><path class="st48" d="M18.2 109.3c-.4 0-.9-.1-1.3-.4C6.6 102.5.4 91.4.4 79.3c0-1.4 1.1-2.5 2.5-2.5s2.5 1.1 2.5 2.5c0 10.4 5.3 19.9 14.1 25.4 1.2.7 1.5 2.3.8 3.4-.4.8-1.2 1.2-2.1 1.2z"/><path class="st48" d="M35.2 111.6L14.7 94.3l2.5 11.5-8.8 7.9z"/></g><g><path class="st48" d="M114.9 76c-1.4 0-2.5-1.1-2.5-2.5 0-10.4-5.3-19.9-14.1-25.4-1.2-.7-1.5-2.3-.8-3.4.7-1.2 2.3-1.5 3.4-.8 10.3 6.4 16.5 17.5 16.5 29.6 0 1.4-1.2 2.5-2.5 2.5z"/><path class="st48" d="M82.5 41.2l20.6 17.3-2.5-11.5 8.7-7.9z"/></g></svg>