<svg id="Layer_2" xmlns="http://www.w3.org/2000/svg" viewBox="0 0 124.2 138.8"><style>.st0{fill:#9dd5e2}.st1{fill:#49adbe}.st2{enable-background:new}.st3{fill:#5a6160}.st4{fill:#776f6f}.st5{fill:#8c8383}</style><path class="st0" d="M26.6 77.1l-25-31.5L16.3 8.2l39.8-6 25 31.5-14.7 37.4z"/><path class="st1" d="M15.8 7.9l39.8-6 25.1 31.5-14.8 37.4"/><path class="st2 st3" d="M29.7 78.4c-3.1 0-6.7-1.6-8.6-4L2 49.9c-2-2.5-2.6-7-1.3-10.1l11.9-29.1c1.3-3.1 4.8-5.9 8.1-6.3L51.6.1c3.3-.4 7.5 1.3 9.6 3.9l19 24.8c2 2.5 2.6 7 1.3 10.1L69.7 67.8c-1.3 3.1-4.8 5.9-8.1 6.3l-30.9 4.3h-1zM16.5 12.3L4.6 41.4c-.7 1.7-.3 4.5.7 5.8l19.1 24.6c1.1 1.4 3.9 2.5 5.7 2.3L61 69.8c1.7-.2 4-2 4.7-3.7l11.8-28.9c.7-1.7.3-4.5-.7-5.8l-19-24.8c-1.1-1.4-3.9-2.5-5.7-2.3L21.2 8.6c-1.7.2-4 2-4.7 3.7z" id="XMLID_5_"/><path class="st3" d="M70.8 79.4c-1 0-2-.4-2.7-1.3l-4-4.8c-1.3-1.5-1.1-3.7.4-5 1.5-1.3 3.7-1.1 5 .4l4 4.8c1.3 1.5 1.1 3.7-.4 5-.7.6-1.5.9-2.3.9z"/><path class="st4" d="M122.4 134.6c-2.1 1.8-5.1 5-6.9 2.9l-47.7-58c-1.8-2.1 2-4.5 4.1-6.3 2.1-1.8 5.4-1.5 7.2.6l44 53.6c1.7 2.2 1.4 5.4-.7 7.2z"/><path class="st5" d="M120.1 136.5l-1.6 1.4c-1.7 1.4-4.2 1.2-5.7-.5L67.5 82.1c-1.4-1.7-1.2-4.2.5-5.7l1.6-1.4c1.7-1.4 4.2-1.2 5.7.5l45.4 55.2c1.3 1.8 1.1 4.4-.6 5.8z"/></svg>