<svg id="Layer_2" xmlns="http://www.w3.org/2000/svg" xmlns:xlink="http://www.w3.org/1999/xlink" viewBox="0 0 194.5 194.8"><style>.st0{fill:#f7d16f}.st1,.st2,.st3,.st4{clip-path:url(#SVGID_2_);fill:#f7c016}.st2,.st3,.st4{fill:#f7bf16}.st3,.st4{fill:#f7be17}.st4{fill:#f7bd17}.st5,.st6,.st7,.st8,.st9{clip-path:url(#SVGID_2_);fill:#f7bc17}.st6,.st7,.st8,.st9{fill:#f6bb18}.st7,.st8,.st9{fill:#f6ba18}.st8,.st9{fill:#f6b919}.st9{fill:#f6b819}.st10,.st11,.st12,.st13,.st14{clip-path:url(#SVGID_2_);fill:#f6b719}.st11,.st12,.st13,.st14{fill:#f6b61a}.st12,.st13,.st14{fill:#f6b51a}.st13,.st14{fill:#f6b41a}.st14{fill:#f6b31b}.st15,.st16,.st17,.st18,.st19{clip-path:url(#SVGID_2_);fill:#f6b21b}.st16,.st17,.st18,.st19{fill:#f5b11c}.st17,.st18,.st19{fill:#f5b01c}.st18,.st19{fill:#f5af1c}.st19{fill:#f5ae1d}.st20,.st21,.st22,.st23,.st24{clip-path:url(#SVGID_2_);fill:#f5ad1d}.st21,.st22,.st23,.st24{fill:#f5ab1d}.st22,.st23,.st24{fill:#f5aa1e}.st23,.st24{fill:#f5a91e}.st24{fill:#f5a81e}.st25,.st26,.st27,.st28,.st29{clip-path:url(#SVGID_2_);fill:#f4a71f}.st26,.st27,.st28,.st29{fill:#f4a61f}.st27,.st28,.st29{fill:#f4a520}.st28,.st29{fill:#f4a420}.st29{fill:#f4a320}.st30,.st31,.st32,.st33,.st34{clip-path:url(#SVGID_2_);fill:#f4a221}.st31,.st32,.st33,.st34{fill:#f4a121}.st32,.st33,.st34{fill:#f4a021}.st33,.st34{fill:#f49f22}.st34{fill:#f49e22}.st35,.st36,.st37,.st38,.st39{clip-path:url(#SVGID_2_);fill:#f39d23}.st36,.st37,.st38,.st39{fill:#f39c23}.st37,.st38,.st39{fill:#f39b23}.st38,.st39{fill:#f39a24}.st39{fill:#f39924}.st40{fill:#5a6160}</style><path class="st0" d="M136.6 73.1l5.1 4.7 11.1-.2 17.8-4.8 9.3-2.8 5.5-5.5s2.8-15.7 3-16.5c.2-.7 3.4-10 3.4-10l-3.9-1.1L169.5 47l-7 1.5-5.5-4.9-4.8-4.8-49.6 47.8-64 65.8 8.6 8.6.3 6.7L44 175l-5.3 10.4-1.5 6 24.6-6.5 6.6-3.1 3.2-10 2.7-11.8 4.3-12-2.1-7.8-3.5-3.5 63.6-63.6z"/><defs><path id="SVGID_1_" d="M149.7 5.5l-11.2 2.9-9.8 2.7-4.8 5.4-3.1 11.6-3.3 12.6-1.3 10.4 5.4 6.8s-10.4 10.3-10.9 10.8c-.6.7-23.7 23.8-23.7 23.8l-29.2 29.2-3.6-3.6-7.8-2.1s-20.1 5.5-21 5.7c-.9.2-12.5 4.6-12.7 4.8-.2.2-6 18.1-6 18.1l-3.7 14 14.5-7 14.3-5.2 8.9 8.3L154.3 40.9l-2.1-2.1-6.2-6.9 1.8-7L159.1 3l-1.7.5-7.7 2z"/></defs><clipPath id="SVGID_2_"><use xlink:href="#SVGID_1_" overflow="visible"/></clipPath><path class="st1" d="M36.7 158.6L159.1 36.2v122.4z"/><path class="st1" d="M35.2 158.6L159.1 34.7v1.5L36.7 158.6z"/><path class="st2" d="M33.8 158.6L159.1 33.3v1.4L35.2 158.6z"/><path class="st3" d="M32.4 158.6L159.1 31.8v1.5L33.8 158.6z"/><path class="st4" d="M30.9 158.6L159.1 30.4v1.4L32.4 158.6z"/><path class="st5" d="M29.5 158.6L159.1 29v1.4L30.9 158.6z"/><path class="st6" d="M28.1 158.6l131-131.1V29L29.5 158.6z"/><path class="st7" d="M26.6 158.6L159.1 26.1v1.4l-131 131.1z"/><path class="st8" d="M25.2 158.6l133.9-134v1.5L26.6 158.6z"/><path class="st9" d="M23.7 158.6L159.1 23.2v1.4l-133.9 134z"/><path class="st10" d="M22.3 158.6L159.1 21.8v1.4L23.7 158.6z"/><path class="st11" d="M20.9 158.6L159.1 20.3v1.5L22.3 158.6z"/><path class="st12" d="M19.4 158.6L159.1 18.9v1.4L20.9 158.6z"/><path class="st13" d="M18 158.6L159.1 17.5v1.4L19.4 158.6z"/><path class="st14" d="M16.5 158.6L159.1 16v1.5L18 158.6z"/><path class="st15" d="M15.1 158.6l144-144V16L16.5 158.6z"/><path class="st16" d="M13.7 158.6L159.1 13.1v1.5l-144 144z"/><path class="st17" d="M12.2 158.6L159.1 11.7v1.4L13.7 158.6z"/><path class="st18" d="M10.8 158.6L159.1 10.3v1.4L12.2 158.6z"/><path class="st19" d="M9.3 158.6L159.1 8.8v1.5L10.8 158.6z"/><path class="st20" d="M7.9 158.6L159.1 7.4v1.4L9.3 158.6z"/><path class="st21" d="M6.5 158.6L159.1 5.9v1.5L7.9 158.6z"/><path class="st22" d="M5 158.6L159.1 4.5v1.4L6.5 158.6z"/><path class="st23" d="M3.6 158.6L159.1 3.1v1.4L5 158.6z"/><path class="st24" d="M3 157.7L157.7 3h1.4v.1L3.6 158.6H3z"/><path class="st25" d="M3 156.3L156.3 3h1.4L3 157.7z"/><path class="st26" d="M3 154.8L154.8 3h1.5L3 156.3z"/><path class="st27" d="M3 153.4L153.4 3h1.4L3 154.8z"/><path class="st28" d="M3 152L152 3h1.4L3 153.4z"/><path class="st29" d="M3 150.5L150.5 3h1.5L3 152z"/><path class="st30" d="M3 149.1L149.1 3h1.4L3 150.5z"/><path class="st31" d="M3 147.6L147.6 3h1.5L3 149.1z"/><path class="st32" d="M3 146.2L146.2 3h1.4L3 147.6z"/><path class="st33" d="M3 144.8L144.8 3h1.4L3 146.2z"/><path class="st34" d="M3 143.3L143.3 3h1.5L3 144.8z"/><path class="st35" d="M3 141.9L141.9 3h1.4L3 143.3z"/><path class="st36" d="M3 140.4L140.4 3h1.5L3 141.9z"/><path class="st37" d="M3 139L139 3h1.4L3 140.4z"/><path class="st38" d="M3 137.6L137.6 3h1.4L3 139z"/><path class="st39" d="M3 136.1L136.1 3h1.5L3 137.6zM136.1 3L3 136.1V3z"/><g><path class="st40" d="M35.4 194.8c-.9 0-1.8-.4-2.3-1.1-.7-.9-.9-2.2-.3-3.2l13.1-25.6c0-.5-.2-1.4-.6-1.7l-13.8-13.8c-.3-.3-1.2-.6-1.7-.6L4.3 161.3c-1.1.5-2.3.4-3.2-.4-.9-.7-1.3-1.9-1-3.1l7.5-28.7c1-3.5 4.5-7 7.9-7.9l30.1-8.1c3.4-1 8.1.3 10.7 2.9l1.5 1.5L117.3 58l-1.3-1.3c-2.6-2.6-3.9-7.3-2.9-10.7l7.9-30.1c1-3.6 4.4-6.9 7.9-7.9L158.3.3c1.1-.3 2.4.1 3.1 1 .7.9.9 2.2.3 3.2l-13.1 25.6c0 .5.2 1.4.6 1.7L163 45.4c.3.3 1.2.6 1.7.6l25.4-12.4c1.1-.5 2.3-.4 3.2.4.9.7 1.3 1.9 1 3.1l-7.5 28.7c-1 3.6-4.4 7-7.9 7.9l-30.1 8.1c-3.4 1-8.1-.3-10.7-2.9l-1.5-1.5-59.5 59.5 1.3 1.3c2.6 2.6 3.9 7.3 2.9 10.7L73.5 179c-1 3.6-4.4 6.9-7.9 7.9l-29.4 7.7c-.3.2-.6.2-.8.2zm-5.6-51.9c2.1 0 4.4.9 5.9 2.3L49.4 159c1.9 1.9 2.8 5.2 2.1 7.8-.1.2-.1.4-.2.5l-10.2 20 22.9-6c1.4-.4 3.3-2.3 3.7-3.8l7.9-30.1c.4-1.4-.3-3.8-1.3-4.9l-3.5-3.5c-.6-.6-.9-1.3-.9-2.1s.3-1.6.9-2.1l63-63c.2-.2.3-.3.4-.5.5-.7 1.3-1.1 2.2-1.1.9 0 1.7.3 2.3.9l3.7 3.7c1.1 1.1 3.5 1.7 4.8 1.4l30.1-8.1c1.4-.4 3.3-2.3 3.7-3.8l5.9-22.3-19.9 9.5c-.2.1-.3.1-.5.2-2.5.7-5.9-.2-7.8-2.1L145 35.9c-1.9-1.9-2.8-5.2-2.1-7.8.1-.2.1-.4.2-.5l10.2-20-22.9 6c-1.4.4-3.3 2.3-3.7 3.8l-7.9 30.1c-.4 1.4.3 3.8 1.3 4.9l3.5 3.5c.6.6.9 1.4.9 2.3 0 .9-.5 1.6-1.1 2.2-.2.1-.3.3-.5.4l-63 63c-1.2 1.2-3.1 1.2-4.2 0l-3.6-3.6c-1.1-1.1-3.5-1.7-4.8-1.4L17.2 127c-1.4.4-3.3 2.3-3.7 3.8L7.6 153l19.9-9.7c.2-.1.3-.1.5-.2.5-.1 1.1-.2 1.8-.2z"/></g></svg>