<svg xmlns="http://www.w3.org/2000/svg" viewBox="0 0 1023.92 316.42"><defs><linearGradient id="a" x1="574.44" y1="1366.92" x2="485.27" y2="1366.92" gradientTransform="translate(0 -1248)" gradientUnits="userSpaceOnUse"><stop offset="0" stop-color="#fec017"/><stop offset="1" stop-color="#f89923"/></linearGradient></defs><title>logo_outlined</title><path d="M343.82 83.59a3.61 3.61 0 0 1 1.4-2.68l9.5-6a2.87 2.87 0 0 1 3.07 0l9.5 6a3.61 3.61 0 0 1 1.4 2.68v11.9a3.61 3.61 0 0 1-1.4 2.68l-9.5 6a2.87 2.87 0 0 1-3.07 0l-9.5-6a3.61 3.61 0 0 1-1.4-2.68v-11.9zM234.32 186.9a1.65 1.65 0 0 1 .84-1.49l5.87-3.57a1.66 1.66 0 0 1 1.68 0l5.87 3.57a1.65 1.65 0 0 1 .84 1.49v7.14a1.65 1.65 0 0 1-.84 1.49l-5.87 3.57a1.66 1.66 0 0 1-1.68 0l-5.87-3.57a1.65 1.65 0 0 1-.84-1.49v-7.14zM1023.92 182.64l-5.87-3.57a1.65 1.65 0 0 1-.84-1.49v-7.14a1.65 1.65 0 0 1 .84-1.49l5.87-3.57M0 173.14a2.91 2.91 0 0 1 2.23 0l7.54 4.76a3.06 3.06 0 0 1 1.12 2.06v9.22a2.54 2.54 0 0 1-1.12 2.08l-7.54 4.76a2.91 2.91 0 0 1-2.23 0" fill="#f5b71a"/><path d="M14.27 25.89a4 4 0 0 1 1.68-3l10.89-6.84a3.37 3.37 0 0 1 3.35 0l10.89 6.91a4.6 4.6 0 0 1 1.68 3v13.32a4 4 0 0 1-1.68 3l-10.89 6.81a3.37 3.37 0 0 1-3.35 0l-10.89-6.54a4.6 4.6 0 0 1-1.68-3V25.89zM129.79 278.9a1.65 1.65 0 0 1 .84-1.49l5.59-3.27a1.68 1.68 0 0 1 1.68 0l5.59 3.27a1.65 1.65 0 0 1 .84 1.49v6.84a1.65 1.65 0 0 1-.84 1.49l-5.59 3.27a1.68 1.68 0 0 1-1.68 0l-5.59-3.27a1.65 1.65 0 0 1-.84-1.49v-6.84zM876.33 75.17a2.67 2.67 0 0 1 1.4-2.38l8.94-5.65a4.48 4.48 0 0 1 2.79 0l8.94 5.65a2.67 2.67 0 0 1 1.4 2.38v11.31a2.67 2.67 0 0 1-1.4 2.38l-8.94 5.65a4.48 4.48 0 0 1-2.79 0l-8.94-5.36a2.67 2.67 0 0 1-1.4-2.38v-11.6zM976.69 6.77a3.06 3.06 0 0 1 1.12-2.08l7.26-4.46a2.91 2.91 0 0 1 2.23 0l7.26 4.46a2.54 2.54 0 0 1 1.12 2.08v9.19a3.06 3.06 0 0 1-1.12 2.08l-7.26 4.46a2.91 2.91 0 0 1-2.23 0l-7.26-4.46a2.54 2.54 0 0 1-1.12-2.08V6.77z" fill="#f7d16e"/><path d="M29.56 246.07a1.65 1.65 0 0 1 .84-1.49l5-3a1.2 1.2 0 0 1 1.4 0l5 3a2.56 2.56 0 0 1 .84 1.49v6.25a1.65 1.65 0 0 1-.84 1.49l-5 3a1.2 1.2 0 0 1-1.4 0l-5-3a2.56 2.56 0 0 1-.84-1.49v-6.25zM140.92 118.02a2.46 2.46 0 0 1 1.12-1.79l7-4.17a2.91 2.91 0 0 1 2.23 0l6.7 4.17a2.46 2.46 0 0 1 1.12 1.79v8.63a2.46 2.46 0 0 1-1.12 1.79l-7 4.17a2.91 2.91 0 0 1-2.23 0l-7-4.17a2.46 2.46 0 0 1-1.12-1.79v-8.63h.28zM907.48 246.28a2.67 2.67 0 0 1 1.4-2.38l8.66-5.36a4.48 4.48 0 0 1 2.79 0l8.66 5.36a2.67 2.67 0 0 1 1.4 2.38v10.68a2.67 2.67 0 0 1-1.4 2.38l-8.66 5.36a4.48 4.48 0 0 1-2.79 0l-8.66-5.36a2.67 2.67 0 0 1-1.4-2.38v-10.68zM715.16 36.42a1.65 1.65 0 0 1 .84-1.46l5.87-3.57a1.66 1.66 0 0 1 1.68 0l5.86 3.57a1.65 1.65 0 0 1 .84 1.49v7.11a1.65 1.65 0 0 1-.84 1.49l-5.87 3.57a1.66 1.66 0 0 1-1.68 0L716 45.05a1.65 1.65 0 0 1-.84-1.49v-7.14z" fill="#9dd4e1"/><path d="M690.87 138.02a3.85 3.85 0 0 1 1.13-2.06l7-4.46a2.91 2.91 0 0 1 2.23 0l7 4.46a2.54 2.54 0 0 1 1.12 2.08v8.63a3.85 3.85 0 0 1-1.12 2.08l-7 4.46a2.91 2.91 0 0 1-2.23 0l-7-4.17a2.54 2.54 0 0 1-1.12-2.08v-8.93zM206 56.5a3.67 3.67 0 0 1 1.68-3l10.61-6.54a3.36 3.36 0 0 1 3.35 0l10.61 6.55a4 4 0 0 1 1.68 3v13.08a3.67 3.67 0 0 1-1.68 3l-10.61 6.55a3.36 3.36 0 0 1-3.35 0l-10.62-6.58a4 4 0 0 1-1.68-3V56.5zM42.6 114.51a3.85 3.85 0 0 1 1.12-2.08l7.28-4.47a2.91 2.91 0 0 1 2.23 0l7.26 4.46a2.54 2.54 0 0 1 1.12 2.08v8.93a3.85 3.85 0 0 1-1.12 2.08l-7.27 4.45a2.91 2.91 0 0 1-2.22 0l-7.26-4.46a2.54 2.54 0 0 1-1.12-2.08v-8.93zM992.11 273.54a1.65 1.65 0 0 1 .84-1.49l5.59-3.57a1.68 1.68 0 0 1 1.68 0l5.59 3.57a1.65 1.65 0 0 1 .84 1.49v6.84a1.65 1.65 0 0 1-.84 1.49l-5.59 3.57a1.68 1.68 0 0 1-1.68 0l-5.59-3.57a1.65 1.65 0 0 1-.84-1.49v-6.84z" fill="#f0f9fb"/><path d="M805.95 215.3a3.67 3.67 0 0 1 1.68-3l10.37-6.52a2.87 2.87 0 0 1 3.07 0l10.33 6.55a4 4 0 0 1 1.68 3v12.79a3.67 3.67 0 0 1-1.68 3l-10.4 6.5a2.87 2.87 0 0 1-3.07 0l-10.33-6.25a4 4 0 0 1-1.68-3V215.3zM918.43 156.24a2.46 2.46 0 0 1 1.12-1.79l7-4.46a2.91 2.91 0 0 1 2.23 0l7 4.46a2.46 2.46 0 0 1 1.12 1.79v8.63a2.46 2.46 0 0 1-1.12 1.79l-7 4.46a2.91 2.91 0 0 1-2.23 0l-7-4.17a2.46 2.46 0 0 1-1.12-1.79v-8.93zM651.63 226.07a2.73 2.73 0 0 1 1.12-2l7-4.89a2.68 2.68 0 0 1 2.23 0l7 4.89a2.73 2.73 0 0 1 1.12 2v9.45a2.73 2.73 0 0 1-1.12 2l-7 4.89a2.68 2.68 0 0 1-2.23 0l-7-4.56a2.73 2.73 0 0 1-1.12-2v-9.77zM284.47 260.2a2.46 2.46 0 0 1 1.12-1.79l7-4.46a2.91 2.91 0 0 1 2.23 0l7 4.46a2.46 2.46 0 0 1 1.12 1.79v8.63a2.46 2.46 0 0 1-1.12 1.79l-7 4.46a2.91 2.91 0 0 1-2.23 0l-7-4.17a2.46 2.46 0 0 1-1.12-1.79v-8.93zM773.55 91.54a1.65 1.65 0 0 1 .84-1.49l5.31-3.27a1.68 1.68 0 0 1 1.68 0l5.31 3.27a1.65 1.65 0 0 1 .84 1.49v6.55a1.65 1.65 0 0 1-.84 1.49l-5.31 3.27a1.68 1.68 0 0 1-1.68 0l-5.31-3.27a1.65 1.65 0 0 1-.84-1.49v-6.55zM0 284.84l3.7-2.19a3.37 3.37 0 0 1 3.35 0l11.17 6.84a4.6 4.6 0 0 1 1.68 3v13.67a3.53 3.53 0 0 1-1.68 3l-11.16 6.8a3.37 3.37 0 0 1-3.35 0L0 313.75M325.26 177.82a3.53 3.53 0 0 1 1.68-3l11.17-6.86a3.37 3.37 0 0 1 3.35 0l11.17 6.84a4.6 4.6 0 0 1 1.68 3v13.69a3.53 3.53 0 0 1-1.68 3l-11.17 6.84a3.37 3.37 0 0 1-3.35 0l-11.17-6.84a4.6 4.6 0 0 1-1.68-3v-13.67zM104.05 193.88a2.46 2.46 0 0 1 1.12-1.79l6.7-4.17a2.25 2.25 0 0 1 2 0l6.7 4.17a2.46 2.46 0 0 1 1.12 1.79v8.63a2.46 2.46 0 0 1-1.12 1.79l-6.7 4.17a2.25 2.25 0 0 1-2 0l-6.7-4.17a2.46 2.46 0 0 1-1.12-1.79v-8.63z" fill="#fef4de"/><path d="M445.49 73.96a14.89 14.89 0 0 1 6.71-11.62l53.55-30.92a14.87 14.87 0 0 1 13.42 0l53.56 30.92a14.89 14.89 0 0 1 6.71 11.62v61.84a14.88 14.88 0 0 1-6.71 11.62l-53.56 30.92a14.88 14.88 0 0 1-13.42 0l-53.55-30.93a14.88 14.88 0 0 1-6.71-11.62V73.96z" fill="#2b2c2b"/><path d="M451.77 77.58a14.89 14.89 0 0 1 6.7-11.62l47.28-27.3a14.88 14.88 0 0 1 13.42 0l47.28 27.3a14.88 14.88 0 0 1 6.71 11.62v54.59a14.88 14.88 0 0 1-6.71 11.62l-47.28 27.3a14.88 14.88 0 0 1-13.42 0l-47.28-27.3a14.88 14.88 0 0 1-6.71-11.62V77.58z" fill="#fed16e"/><path d="M566.45 80l-47.28-27.3a13.74 13.74 0 0 0-6.71-1.6v135.63a13.73 13.73 0 0 0 6.71-1.6l47.28-27.3a14.87 14.87 0 0 0 6.71-11.62V91.62A14.88 14.88 0 0 0 566.45 80z" transform="translate(0 -14.04)" fill="url(#a)"/><path d="M431.47 71.78a7.44 7.44 0 0 1 3.35-5.82l28.48-16.43a7.45 7.45 0 0 1 6.71 0l28.48 16.43a7.44 7.44 0 0 1 3.36 5.81v32.88a7.44 7.44 0 0 1-3.36 5.81L470 126.96a7.47 7.47 0 0 1-6.71 0l-28.48-16.45a7.44 7.44 0 0 1-3.35-5.81V71.78z" fill="#2b2c2b"/><path d="M437.57 75.31a7.43 7.43 0 0 1 3.36-5.81l22.37-12.92a7.44 7.44 0 0 1 6.71 0l22.38 12.92a7.44 7.44 0 0 1 3.35 5.81v25.83a7.44 7.44 0 0 1-3.35 5.81L470 119.87a7.46 7.46 0 0 1-6.71 0l-22.36-12.91a7.43 7.43 0 0 1-3.36-5.81V75.31z" fill="#9ddbee"/><path d="M441.4 106.62v-25.2a8.33 8.33 0 0 1 3.72-6.46l21.65-12.6a8.2 8.2 0 0 1 7.44 0l21.5 12.51a8.45 8.45 0 0 0-3.65-5.68l-21.65-12.63a8.21 8.21 0 0 0-7.44 0l-21.65 12.6a8.32 8.32 0 0 0-3.72 6.49v25.2a8.32 8.32 0 0 0 3.72 6.49l.15.09a5.71 5.71 0 0 1-.07-.81z" fill="#4cb0c1"/><path d="M522.16 71.78a7.44 7.44 0 0 1 3.35-5.82L554 49.53a7.45 7.45 0 0 1 6.71 0l28.47 16.43a7.44 7.44 0 0 1 3.35 5.81v32.88a7.44 7.44 0 0 1-3.35 5.81l-28.48 16.5a7.47 7.47 0 0 1-6.71 0l-28.48-16.45a7.43 7.43 0 0 1-3.36-5.81V71.78z" fill="#2b2c2b"/><path d="M528.29 75.32a7.44 7.44 0 0 1 3.36-5.81L554 56.6a7.45 7.45 0 0 1 6.71 0l22.35 12.9a7.44 7.44 0 0 1 3.36 5.81v25.81a7.45 7.45 0 0 1-3.35 5.81l-22.37 12.92a7.44 7.44 0 0 1-6.71 0l-22.35-12.89a7.44 7.44 0 0 1-3.35-5.81V75.32z" fill="#9ddbee"/><path d="M454.21 38.35s3.79-13.39 5.23-12.99 26.4 2.31 42.74 30.59c-7.69-10.87-47.97-17.6-47.97-17.6zm116.53 0S567 24.96 565.5 25.36s-26.4 2.31-42.74 30.6c7.68-10.88 47.97-17.61 47.97-17.61zm-70.68 135.61l12.8 22.64 12.81-22.64-17.94 1.15z" fill="#2b2c2b"/><path d="M526.52 171.96c0-2.77-6.12-5-13.66-5s-13.66 2.24-13.66 5 6.12 5 13.66 5 13.66-2.22 13.66-5zm-11.08-51.79a4.85 4.85 0 0 0-6 0l-5.34 4.44c-1.64 1.36-1.23 2.48.9 2.48h14.83c2.13 0 2.54-1.11.9-2.48zm18 21.58a50.83 50.83 0 0 1-19.47 4 52.52 52.52 0 0 1-22.22-4.59l-2.75 4.63a56.58 56.58 0 0 0 25 5.29 51.87 51.87 0 0 0 21.82-4.56z" fill="#2b2c2b"/><path d="M532.1 106.49V81.41a8.28 8.28 0 0 1 3.71-6.45l21.65-12.54a8.23 8.23 0 0 1 7.44 0l21.49 12.44a8.38 8.38 0 0 0-3.65-5.66L561.1 56.66a8.23 8.23 0 0 0-7.44 0L532 69.2a8.27 8.27 0 0 0-3.72 6.46v25.08a8.27 8.27 0 0 0 3.71 6.46l.15.09a5.69 5.69 0 0 1-.04-.8z" fill="#4cb0c1"/><path d="M465.38 77.27v10.51l-6.85-8a10.49 10.49 0 1 0 6.85-2.51zm91.87 0v10.51l-6.84-8a10.5 10.5 0 1 0 6.85-2.51zm-48.6-.55l-11.47 6.68v7l11.47-6.69a7.78 7.78 0 0 1 7.06 0l12 7v-6.98l-12-7a7.76 7.76 0 0 0-7.06-.01zm.64 86.42l-9.22 5.37v5.58l9.21-5.37a6.27 6.27 0 0 1 5.68 0l9.67 5.63v-5.58l-9.63-5.63a6.25 6.25 0 0 0-5.71 0z" fill="#2b2c2b"/><path d="M381.09 257.06h-8.5l19-44.69h8.91l19.38 44.69h-8.91l-5.09-12.19H391l2.84-7.19h9l-7-16.78zM425.3 257.06v-44.69h20q13.7 0 13.7 12.59 0 13.66-18.72 16.53l-1.19-7.37q11.25-2 11.25-8.91 0-5.56-5.56-5.56h-11.19v37.41h-8.29zM472.74 212.37v44.69h-8.28v-44.69h8.28zM480.36 255.65v-5.62a32.49 32.49 0 0 0 11.39 1.88q7.71 0 7.71-5.16 0-3.75-4.73-3.75h-5.25q-10.29 0-10.29-9.37 0-10.31 14.65-10.31a34.23 34.23 0 0 1 10.66 1.64v5.63a30.33 30.33 0 0 0-10.66-1.87q-8.44 0-8.44 4.92 0 3.75 4.08 3.75h5.25q10.95 0 10.95 9.38 0 10.55-13.92 10.55a36.71 36.71 0 0 1-11.4-1.67zM516 251.32v5.74h-6.21v-5.74H516zM548.56 255.51a25.29 25.29 0 0 1-10.15 1.78q-17.74 0-17.74-17.46 0-16.52 18-16.52a27.67 27.67 0 0 1 9.84 1.64v5.63a23.36 23.36 0 0 0-9.37-1.87q-12.07 0-12.07 11.13 0 12.07 11.39 12.07a15.43 15.43 0 0 0 3.84-.56v-9.75h6.21v13.92zM554.42 243.89v-20.35h6.21v20.34q0 8 8.2 8t8.2-8v-20.34h6.21v20.34q0 13.41-14.41 13.41t-14.41-13.4zM590.28 257.01v-33.47h15.23q10.27 0 10.27 9 0 6.07-8 10.05l10.62 14.48h-7.83l-10.2-14.6v-2.84q8.91-1.52 8.91-6.91 0-3.7-4.17-3.7h-8.51v28h-6.33zM621.34 243.89v-20.35h6.21v20.34q0 8 8.2 8t8.2-8v-20.34h6.21v20.34q0 13.41-14.41 13.41t-14.41-13.4z" fill="#666"/><path d="M377.06 266.64h1.38l3 16.87 5.87-16.87h1.33l6 17 3.36-17h1.28l-3.67 18.15h-1.93l-5.74-16.58-5.75 16.58h-1.89zM404.09 266.64v1.52h-1.59v-1.52h1.59zm-.09 4.83v13.33h-1.33v-13.33H404zM408.15 284.8v-18.16h1.33v6a11.23 11.23 0 0 1 5.12-1.17q4.72 0 4.72 3.85 0 2.92-4.19 4l4.52 5.5h-2l-4.24-5.52v-.8q4.59-.54 4.59-3.2t-3.68-2.69a10.63 10.63 0 0 0-4.82 1.19v11h-1.33zM424 266.64v1.52h-1.59v-1.52H424zm-.13 4.82v13.33h-1.33v-13.32h1.33zM428.23 272.01a21.88 21.88 0 0 1 5.1-.55q6.41 0 6.41 6.33 0 7-6.45 7a13.35 13.35 0 0 1-3.73-.63v5.46h-1.33v-17.61zm1.33 10.83a11.64 11.64 0 0 0 3.72.69q5.17 0 5.17-5.75 0-5.12-5.14-5.12a24.51 24.51 0 0 0-3.75.3v9.88zM448.54 271.47q5.47 0 5.47 6.06v.9h-10.14q0 5.23 5.54 5.23a11.9 11.9 0 0 0 4-.63v1.14a11.9 11.9 0 0 1-4 .63q-6.87 0-6.87-6.82-.01-6.51 6-6.51zm-4.67 5.76h8.86q-.08-4.65-4.19-4.65-4.45 0-4.67 4.65zM468.48 283.96a16 16 0 0 1-5.47.8q-6.21 0-6.21-6.93 0-6.4 6.32-6.4a13.53 13.53 0 0 1 4 .63v-5.46h1.33v17.36zm-1.33-10.7a11.89 11.89 0 0 0-4-.69q-4.91 0-4.91 5.17 0 5.83 4.91 5.83a16.08 16.08 0 0 0 4-.5v-9.81zM474.26 266.64v1.52h-1.59v-1.52h1.59zm-.13 4.82v13.33h-1.33v-13.32h1.33zM477.69 281.03q0-4 5.28-4a33.68 33.68 0 0 1 4 .25v-1.64q0-3.06-3.85-3.06a15.32 15.32 0 0 0-4.34.63v-1.14a15.32 15.32 0 0 1 4.34-.63q5.18 0 5.18 4.14v9.19h-.81l-.3-1.32a10.37 10.37 0 0 1-4.85 1.32q-4.65.03-4.65-3.74zm5.28-2.83q-3.95 0-3.95 2.79t3.3 2.67a9 9 0 0 0 4.68-1.3v-3.91a33.68 33.68 0 0 0-4-.25zM498.7 284.8v-14q0-4.84 5.36-4.84a8.28 8.28 0 0 1 3 .51v1.14a7.94 7.94 0 0 0-3-.51q-4 0-4 3.72v.62h5v1.14h-5v12.19h-1.36zM506.14 278.13q0-6.79 6.22-6.79t6.22 6.79q0 6.78-6.22 6.78t-6.22-6.78zm6.22 5.65q4.89 0 4.89-5.7t-4.89-5.6q-4.89 0-4.89 5.6t4.89 5.7zM522 284.8v-13.33h1l.17 2.21a6 6 0 0 1 4.47-2.21v1.07a5.4 5.4 0 0 0-4.25 2.32v9.94H522zM534.83 266.64h1.38l3 16.87 5.79-16.87h1.33l6 17 3.36-17H557l-3.67 18.15h-1.93l-5.74-16.58L540 284.8h-1.89zM572.06 266.64v1.14h-10.58v7.24h10.16v1.14h-10.16v7.49h10.77v1.14h-12.1v-18.15h11.92zM576 284.8v-18.16h7.74q5.18 0 5.18 4.23 0 3.1-3.76 4.43 4 .67 4 4.25 0 5.24-5.67 5.24H576zm7.34-1.14q4.39 0 4.39-4.06 0-3.59-5.5-3.59h-1v-.9q6.35-.57 6.35-4.14 0-3.17-3.91-3.17h-6.32v15.87h6zM599.05 284.8h-1.42l8.21-18.15h1.59l8.25 18.15h-1.58l-2.69-6.09h-7.63l.52-1.14h6.61l-4.35-9.88zM618.16 284.8v-18.16h7.62q5.31 0 5.31 5t-8.49 6.26l-.23-1.22q7.24-1 7.24-4.94t-4-3.91h-6.07v17h-1.33zM636.16 266.64v18.15h-1.33v-18.15h1.33zM640.61 284.16v-1.27a13.41 13.41 0 0 0 4.37.76q4.2 0 4.2-2.67 0-2.16-3.11-2.16h-1.7q-4.19 0-4.19-3.55 0-3.81 5.55-3.81a15.82 15.82 0 0 1 4.35.63v1.27a13.38 13.38 0 0 0-4.35-.76q-4.21 0-4.21 2.67 0 2.29 2.86 2.29h1.7q4.44 0 4.44 3.43 0 3.81-5.54 3.81a15.86 15.86 0 0 1-4.37-.64z"/></svg>