<svg xmlns="http://www.w3.org/2000/svg" viewBox="0 0 506.1 92.8"><style>.st0,.st1,.st2,.st3,.st4{fill:#f5b71a;enable-background:new}.st1,.st2,.st3,.st4{fill:#f7d16e}.st2,.st3,.st4{fill:#9dd4e1}.st3,.st4{fill:#f0f9fb}.st4{fill:#fef4de}</style><g id="Layer_2"><path id="XMLID_5_" class="st0" d="M192.4 25.5c0-.3.2-.7.5-.9l3.4-2c.3-.2.8-.2 1.1 0l3.4 2c.3.2.5.6.5.9v4c0 .3-.2.7-.5.9l-3.4 2c-.3.2-.8.2-1.1 0l-3.4-2c-.3-.2-.5-.6-.5-.9v-4z"/><path id="XMLID_2_" class="st0" d="M154.2 65.4c0-.2.1-.4.3-.5l2.1-1.2c.2-.1.5-.1.6 0l2.1 1.2c.2.1.3.3.3.5v2.4c0 .2-.1.4-.3.5l-2.1 1.2c-.2.1-.5.1-.6 0l-2.1-1.2c-.2-.1-.3-.3-.3-.5v-2.4z"/><path id="XMLID_3_" class="st0" d="M436.8 54.8c0-.2.1-.4.3-.5l2.1-1.2c.2-.1.5-.1.6 0l2.1 1.2c.2.1.3.3.3.5v2.4c0 .2-.1.4-.3.5l-2.1 1.2c-.2.1-.5.1-.6 0l-2.1-1.2c-.2-.1-.3-.3-.3-.5v-2.4z"/><path id="XMLID_1_" class="st0" d="M64.9 57.9c0-.3.2-.6.4-.7l2.7-1.6c.2-.1.6-.1.8 0l2.7 1.6c.2.1.4.5.4.7V61c0 .3-.2.6-.4.7l-2.7 1.6c-.2.1-.6.1-.8 0l-2.7-1.6c-.2-.1-.4-.5-.4-.7v-3.1z"/></g><g id="Layer_3"><path id="XMLID_4_" class="st1" d="M53 17.4c0-.4.3-.8.6-1l3.9-2.3c.3-.2.9-.2 1.2 0l3.9 2.3c.3.2.6.7.6 1v4.5c0 .4-.3.8-.6 1l-3.9 2.3c-.3.2-.9.2-1.2 0L53.6 23c-.3-.2-.6-.7-.6-1v-4.6z"/><path id="XMLID_30_" class="st1" d="M109.9 85.5c0-.2.1-.4.3-.5l2-1.1c.2-.1.4-.1.6 0l2 1.1c.2.1.3.3.3.5v2.3c0 .2-.1.4-.3.5l-2 1.1c-.2.1-.4.1-.6 0l-2-1.1c-.2-.1-.3-.3-.3-.5v-2.3z"/><path id="XMLID_7_" class="st1" d="M383.2 22.2c0-.3.2-.7.5-.8l3.2-1.9c.3-.1.7-.1 1 0l3.2 1.9c.3.1.5.5.5.8V26c0 .3-.2.7-.5.8l-3.2 1.9c-.3.1-.7.1-1 0l-3.2-1.8c-.3-.1-.5-.5-.5-.8v-3.9z"/><path id="XMLID_8_" class="st1" d="M499.2 61.7c0-.2.2-.6.4-.7l2.6-1.5c.2-.1.6-.1.8 0l2.6 1.5c.2.1.4.4.4.7v3.1c0 .2-.2.6-.4.7L503 67c-.2.1-.6.1-.8 0l-2.6-1.5c-.2-.1-.4-.4-.4-.7v-3.1z"/></g><g id="Layer_4"><path id="XMLID_9_" class="st2" d="M49 89.2c0-.2.1-.4.3-.5l1.8-1c.1-.1.4-.1.5 0l1.8 1c.1.1.3.3.3.5v2.1c0 .2-.1.4-.3.5l-1.8 1c-.1.1-.4.1-.5 0l-1.8-1c-.1-.1-.3-.3-.3-.5v-2.1z"/><path id="XMLID_10_" class="st2" d="M119.9 36.6c0-.2.2-.5.4-.6l2.5-1.4c.2-.1.6-.1.8 0L126 36c.2.1.4.4.4.6v2.9c0 .2-.2.5-.4.6l-2.5 1.4c-.2.1-.6.1-.8 0l-2.5-1.4c-.2-.1-.4-.4-.4-.6v-2.9h.1z"/><path id="XMLID_11_" class="st2" d="M408.5 77.9c0-.3.2-.7.5-.8l3.1-1.8c.3-.1.7-.1 1 0l3.1 1.8c.3.1.5.5.5.8v3.6c0 .3-.2.7-.5.8l-3.1 1.8c-.3.1-.7.1-1 0l-3.1-1.8c-.3-.1-.5-.5-.5-.8v-3.6z"/><path id="XMLID_12_" class="st2" d="M449.3 13.1c0-.2.1-.4.3-.5l2.1-1.2c.2-.1.5-.1.6 0l2.1 1.2c.2.1.3.3.3.5v2.4c0 .2-.1.4-.3.5l-2.1 1.2c-.2.1-.5.1-.6 0l-2.1-1.2c-.2-.1-.3-.3-.3-.5v-2.4z"/></g><g id="Layer_5"><path id="XMLID_13_" class="st3" d="M316.8 48.5c0-.2.2-.5.4-.7l2.5-1.5c.2-.1.6-.1.8 0l2.5 1.5c.2.1.4.4.4.7v2.9c0 .2-.2.5-.4.7l-2.5 1.5c-.2.1-.6.1-.8 0l-2.5-1.4c-.2-.1-.4-.4-.4-.7v-3z"/><path id="XMLID_28_" class="st3" d="M143.2 21.1c0-.3.2-.8.6-1l3.8-2.2c.3-.2.8-.2 1.2 0l3.8 2.2c.3.2.6.6.6 1v4.4c0 .3-.2.8-.6 1l-3.8 2.2c-.3.2-.8.2-1.2 0l-3.8-2.2c-.3-.2-.6-.6-.6-1v-4.4z"/><path id="XMLID_27_" class="st3" d="M84.7 40.6c0-.2.2-.5.4-.7l2.6-1.5c.2-.1.6-.1.8 0l2.6 1.5c.2.1.4.4.4.7v3c0 .2-.2.5-.4.7l-2.6 1.5c-.2.1-.6.1-.8 0l-2.6-1.5c-.2-.1-.4-.4-.4-.7v-3z"/><path id="XMLID_16_" class="st3" d="M471.6 85.9c0-.2.1-.4.3-.5l2-1.2c.2-.1.4-.1.6 0l2 1.2c.2.1.3.3.3.5v2.3c0 .2-.1.4-.3.5l-2 1.2c-.2.1-.4.1-.6 0l-2-1.2c-.2-.1-.3-.3-.3-.5v-2.3z"/></g><g id="Layer_6"><path id="XMLID_17_" class="st4" d="M358 69.3c0-.3.2-.8.6-1l3.7-2.2c.3-.2.8-.2 1.1 0l3.7 2.2c.3.2.6.6.6 1v4.3c0 .3-.2.8-.6 1l-3.7 2.2c-.3.2-.8.2-1.1 0l-3.7-2.1c-.3-.2-.6-.6-.6-1v-4.4z"/><path id="XMLID_18_" class="st4" d="M409.3 35.8c0-.2.2-.5.4-.6l2.5-1.5c.2-.1.6-.1.8 0l2.5 1.5c.2.1.4.4.4.6v2.9c0 .2-.2.5-.4.6l-2.5 1.5c-.2.1-.6.1-.8 0l-2.5-1.4c-.2-.1-.4-.4-.4-.6v-3z"/><path id="XMLID_19_" class="st4" d="M492.3 27.5c0-.2.2-.5.4-.6l2.5-1.5c.2-.1.6-.1.8 0l2.5 1.5c.2.1.4.4.4.6v2.9c0 .2-.2.5-.4.6l-2.5 1.5c-.2.1-.6.1-.8 0l-2.5-1.4c-.2-.1-.4-.4-.4-.6v-3z"/><path id="XMLID_20_" class="st4" d="M19.9 37.8c0-.2.2-.5.4-.6l2.5-1.5c.2-.1.6-.1.8 0l2.5 1.5c.2.1.4.4.4.6v2.9c0 .2-.2.5-.4.6l-2.5 1.5c-.2.1-.6.1-.8 0l-2.5-1.4c-.2-.1-.4-.4-.4-.6v-3z"/><path id="XMLID_23_" class="st4" d="M346.4 27.7c0-.2.1-.4.3-.5l1.9-1.1c.2-.1.4-.1.6 0l1.9 1.1c.2.1.3.3.3.5v2.2c0 .2-.1.4-.3.5l-1.9 1.1c-.2.1-.4.1-.6 0l-1.9-1.1c-.2-.1-.3-.3-.3-.5v-2.2z"/><path id="XMLID_21_" class="st4" d="M0 75c0-.4.3-.9.6-1l4-2.3c.3-.2.9-.2 1.2 0l4 2.3c.3.2.6.7.6 1v4.6c0 .4-.3.9-.6 1l-4 2.3c-.3.2-.9.2-1.2 0l-4-2.3c-.3-.1-.6-.6-.6-1V75z"/><path id="XMLID_22_" class="st4" d="M185.9 56.7c0-.4.3-.9.6-1l4-2.3c.3-.2.9-.2 1.2 0l4 2.3c.3.2.6.7.6 1v4.6c0 .4-.3.9-.6 1l-4 2.3c-.3.2-.9.2-1.2 0l-4-2.3c-.3-.2-.6-.7-.6-1v-4.6z"/><path id="XMLID_24_" class="st4" d="M106.7 62.1c0-.2.2-.5.4-.6l2.4-1.4c.2-.1.5-.1.7 0l2.4 1.4c.2.1.4.4.4.6V65c0 .2-.2.5-.4.6l-2.4 1.4c-.2.1-.5.1-.7 0l-2.4-1.4c-.2-.1-.4-.4-.4-.6v-2.9z"/></g></svg>