<svg id="Layer_1" xmlns="http://www.w3.org/2000/svg" xmlns:xlink="http://www.w3.org/1999/xlink" viewBox="0 0 319.4 450.2"><style>.st0{fill:#f7d171}.st1,.st2,.st3{clip-path:url(#SVGID_2_);fill:#f6c01a}.st2,.st3{fill:#f6bf1a}.st3{fill:#f6be1b}.st4,.st5,.st6,.st7,.st8{clip-path:url(#SVGID_2_);fill:#f6bd1b}.st5,.st6,.st7,.st8{fill:#f6bc1b}.st6,.st7,.st8{fill:#f6bc1c}.st7,.st8{fill:#f5bb1c}.st8{fill:#f5ba1c}.st10,.st11,.st12,.st13,.st9{clip-path:url(#SVGID_2_);fill:#f5b91d}.st10,.st11,.st12,.st13{fill:#f5b81d}.st11,.st12,.st13{fill:#f5b71d}.st12,.st13{fill:#f5b71e}.st13{fill:#f5b61e}.st14,.st15,.st16,.st17,.st18{clip-path:url(#SVGID_2_);fill:#f5b51e}.st15,.st16,.st17,.st18{fill:#f5b41e}.st16,.st17,.st18{fill:#f5b41f}.st17,.st18{fill:#f5b31f}.st18{fill:#f5b21f}.st19,.st20,.st21,.st22,.st23{clip-path:url(#SVGID_2_);fill:#f5b120}.st20,.st21,.st22,.st23{fill:#f4b020}.st21,.st22,.st23{fill:#f4af20}.st22,.st23{fill:#f4ae21}.st23{fill:#f4ad21}.st24,.st25,.st26,.st27,.st28{clip-path:url(#SVGID_2_);fill:#f4ac21}.st25,.st26,.st27,.st28{fill:#f4ab21}.st26,.st27,.st28{fill:#f4aa22}.st27,.st28{fill:#f4a922}.st28{fill:#f4a822}.st29,.st30,.st31,.st32,.st33{clip-path:url(#SVGID_2_);fill:#f4a723}.st30,.st31,.st32,.st33{fill:#f4a623}.st31,.st32,.st33{fill:#f4a523}.st32,.st33{fill:#f4a423}.st33{fill:#f3a323}.st34,.st35,.st36,.st37,.st38{clip-path:url(#SVGID_2_);fill:#f3a224}.st35,.st36,.st37,.st38{fill:#f3a124}.st36,.st37,.st38{fill:#f3a024}.st37,.st38{fill:#f39f24}.st38{fill:#f39e24}.st39,.st40,.st41,.st42,.st43{clip-path:url(#SVGID_2_);fill:#f39d25}.st40,.st41,.st42,.st43{fill:#f39c25}.st41,.st42,.st43{fill:#f39b25}.st42,.st43{fill:#f39a25}.st43{fill:#f39925}.st44{fill:#8a6f2c}.st45{fill:none;stroke:#737373;stroke-width:18;stroke-miterlimit:10}.st46{fill:#5c6361}.st47{clip-path:url(#SVGID_4_)}.st48{fill:#787878}.st49{fill:gray}.st50{clip-path:url(#SVGID_6_)}.st51{fill:#6b6c6c}.st52{clip-path:url(#SVGID_8_)}.st53{fill:#676767}.st54{fill:#e55325}.st55{fill:#e35e28}</style><path class="st0" d="M309.9 92.7L160.5 6.5 11.1 92.7v172.5l90.3 52.1v16.4s3.1 38.4 3.2 39.9 4.7 18.1 5.1 18.8 57.8 8 57.8 8 34.3-2.1 36.3-2.8 14.5-6.6 14.6-14-.1-44.8 0-50c.1-3.1-.6-9.8-1.2-14.8l92.8-53.6V92.7z"/><defs><path id="SVGID_1_" d="M160.1 349l.4 45h45.2l11.5-23.9 5.9-57.5 86-49.6V90.4L159.7 4.2v299.2"/></defs><clipPath id="SVGID_2_"><use xlink:href="#SVGID_1_" overflow="visible"/></clipPath><path class="st1" d="M159.7 4.2V394 4.2zM159.7 4.2h2.7v389.9h-2.7z"/><path class="st2" d="M162.4 4.2h2.7v389.9h-2.7z"/><path class="st3" d="M165.2 4.2h2.7v389.9h-2.7zM167.9 4.2h2.7v389.9h-2.7z"/><path class="st4" d="M170.6 4.2h2.7v389.9h-2.7z"/><path class="st5" d="M173.3 4.2h2.7v389.9h-2.7z"/><path class="st6" d="M176 4.2h2.7v389.9H176z"/><path class="st7" d="M178.7 4.2h2.7v389.9h-2.7z"/><path class="st8" d="M181.5 4.2h2.7v389.9h-2.7z"/><path class="st9" d="M184.2 4.2h2.7v389.9h-2.7zM186.9 4.2h2.7v389.9h-2.7z"/><path class="st10" d="M189.6 4.2h2.7v389.9h-2.7z"/><path class="st11" d="M192.3 4.2h2.7v389.9h-2.7z"/><path class="st12" d="M195 4.2h2.7v389.9H195z"/><path class="st13" d="M197.8 4.2h2.7v389.9h-2.7z"/><path class="st14" d="M200.5 4.2h2.7v389.9h-2.7z"/><path class="st15" d="M203.2 4.2h2.7v389.9h-2.7z"/><path class="st16" d="M205.9 4.2h2.7v389.9h-2.7z"/><path class="st17" d="M208.6 4.2h2.7v389.9h-2.7z"/><path class="st18" d="M211.3 4.2h2.7v389.9h-2.7zM214.1 4.2h2.7v389.9h-2.7z"/><path class="st19" d="M216.8 4.2h2.7v389.9h-2.7z"/><path class="st20" d="M219.5 4.2h2.7v389.9h-2.7z"/><path class="st21" d="M222.2 4.2h2.7v389.9h-2.7zM224.9 4.2h2.7v389.9h-2.7z"/><path class="st22" d="M227.6 4.2h2.7v389.9h-2.7z"/><path class="st23" d="M230.4 4.2h2.7v389.9h-2.7zM233.1 4.2h2.7v389.9h-2.7z"/><path class="st24" d="M235.8 4.2h2.7v389.9h-2.7z"/><path class="st25" d="M238.5 4.2h2.7v389.9h-2.7z"/><path class="st26" d="M241.2 4.2h2.7v389.9h-2.7zM243.9 4.2h2.7v389.9h-2.7z"/><path class="st27" d="M246.7 4.2h2.7v389.9h-2.7z"/><path class="st28" d="M249.4 4.2h2.7v389.9h-2.7zM252.1 4.2h2.7v389.9h-2.7z"/><path class="st29" d="M254.8 4.2h2.7v389.9h-2.7z"/><path class="st30" d="M257.5 4.2h2.7v389.9h-2.7z"/><path class="st31" d="M260.2 4.2h2.7v389.9h-2.7zM263 4.2h2.7v389.9H263z"/><path class="st32" d="M265.7 4.2h2.7v389.9h-2.7z"/><path class="st33" d="M268.4 4.2h2.7v389.9h-2.7zM271.1 4.2h2.7v389.9h-2.7z"/><path class="st34" d="M273.8 4.2h2.7v389.9h-2.7z"/><path class="st35" d="M276.5 4.2h2.7v389.9h-2.7z"/><path class="st36" d="M279.3 4.2h2.7v389.9h-2.7zM282 4.2h2.7v389.9H282z"/><path class="st37" d="M284.7 4.2h2.7v389.9h-2.7z"/><path class="st38" d="M287.4 4.2h2.7v389.9h-2.7zM290.1 4.2h2.7v389.9h-2.7z"/><path class="st39" d="M292.8 4.2h2.7v389.9h-2.7z"/><path class="st40" d="M295.6 4.2h2.7v389.9h-2.7zM298.3 4.2h2.7v389.9h-2.7z"/><path class="st41" d="M301 4.2h2.7v389.9H301z"/><path class="st42" d="M303.7 4.2h2.7v389.9h-2.7z"/><path class="st43" d="M306.4 4.2h2.7v389.9h-2.7zM309.1 394V4.2 394z"/><g><path class="st44" d="M172.6 400c-2.2 0-4-1.8-4-4-1.1-128.5 43.1-234.9 43.5-236 .9-2 3.2-3 5.2-2.1 2 .9 3 3.2 2.1 5.2-.4 1-44 106.1-42.9 232.8.1 2.2-1.7 4.1-3.9 4.1z"/></g><g><path class="st44" d="M147.7 400c-2.2 0-4-1.8-4-4 1.1-126.9-42.4-231.8-42.9-232.8-.9-2 .1-4.4 2.1-5.2 2-.9 4.4.1 5.2 2.1.4 1.1 44.6 107.5 43.5 236 .1 2.1-1.7 3.9-3.9 3.9z"/></g><path class="st46" d="M297.7 72.7L182 5.3l-.2-.1c-12.4-6.9-31.8-6.9-44.3 0L21.8 72.7C9.6 79.6 0 96.2 0 110.7v135c0 14.5 9.6 31.1 21.8 38l70.8 40.6c.7 1.4 1.4 3.8 1.5 9.3 0 3.4.2 4.2.5 11.8 1 30.5 2.3 68.5 25.6 72.8 3.2.6 27.5 2.6 37.2 3 .7.1 1.4.1 2.5.1l.1-18H158.4c-9.6-.4-32.6-2.3-34.9-2.7-.5-.1-4.6-1.3-7.6-16.8-2.3-11.9-2.8-26.9-3.2-38.9-.3-9-.5-16.1-1.4-20.8-.6-3.2-3-13.5-11.4-16.7l-68.8-39.5-.1-.1c-6.4-3.6-12.4-14.2-12.4-22v-135c0-7.8 6-18.4 12.4-22l115.8-67.6c6.9-3.8 19.4-3.8 26.3 0l115.6 67.5.2.1c6.4 3.6 12.4 14.2 12.4 22v134c0 7.8-6 18.5-12.4 22l-67.8 39.6c-1.7.6-3.1 1.5-4.4 2.5l-.2.1c-5 4.4-6.6 11.5-7.1 14.1-.9 4.7-1.1 11.8-1.4 20.8-.4 12-.9 27-3.2 38.9-3 15.5-7.2 16.7-7.6 16.8-2.3.4-25.3 2.3-34.9 2.7h-1.6l.1 18c1 0 1.8 0 2.5-.1 9.7-.4 34-2.4 37.2-3 23.3-4.3 24.5-42.3 25.6-72.8.3-7.6.5-8.4.5-11.8.1-5.4.7-7.7 1.4-9.2l69.9-40.8c12.2-6.8 21.8-23.5 21.8-38v-134c-.3-14.4-9.8-31-22-37.9z"/><g><defs><path id="SVGID_3_" d="M190.5 450.2H129c-1.6 0-2.9-1.3-2.9-2.9v-16.9c0-1.6 1.3-2.9 2.9-2.9h61.5c1.6 0 2.9 1.3 2.9 2.9v16.9c-.1 1.6-1.4 2.9-2.9 2.9z"/></defs><use xlink:href="#SVGID_3_" overflow="visible" fill="#787878"/><clipPath id="SVGID_4_"><use xlink:href="#SVGID_3_" overflow="visible"/></clipPath><path class="st47 st48" d="M190.5 450.2H129c-1.6 0-2.9-1.3-2.9-2.9v-16.9c0-1.6 1.3-2.9 2.9-2.9h61.5c1.6 0 2.9 1.3 2.9 2.9v16.9c-.1 1.6-1.4 2.9-2.9 2.9z" id="XMLID_26_"/><path class="st47 st49" d="M190.5 444.1H129c-1.6 0-2.9-1.3-2.9-2.9v-16.9c0-1.6 1.3-2.9 2.9-2.9h61.5c1.6 0 2.9 1.3 2.9 2.9v16.9c-.1 1.7-1.4 2.9-2.9 2.9z" id="XMLID_25_"/></g><g><defs><path id="SVGID_5_" d="M212.9 431.6H106.6c-1.6 0-2.9-1.3-2.9-2.9v-16.9c0-1.6 1.3-2.9 2.9-2.9h106.3c1.6 0 2.9 1.3 2.9 2.9v16.9c-.1 1.6-1.3 2.9-2.9 2.9z"/></defs><use xlink:href="#SVGID_5_" overflow="visible" fill="#666767"/><clipPath id="SVGID_6_"><use xlink:href="#SVGID_5_" overflow="visible"/></clipPath><path class="st50 st51" d="M212.9 426.7H106.6c-1.6 0-2.9-1.3-2.9-2.9v-16.9c0-1.6 1.3-2.9 2.9-2.9h106.3c1.6 0 2.9 1.3 2.9 2.9v16.9c-.1 1.6-1.3 2.9-2.9 2.9z" id="XMLID_23_"/></g><g><defs><path id="SVGID_7_" d="M230 413H89.4c-1.6 0-2.9-1.3-2.9-2.9v-16.9c0-1.6 1.3-2.9 2.9-2.9H230c1.6 0 2.9 1.3 2.9 2.9v16.9c0 1.6-1.3 2.9-2.9 2.9z"/></defs><use xlink:href="#SVGID_7_" overflow="visible" fill="#616161"/><clipPath id="SVGID_8_"><use xlink:href="#SVGID_7_" overflow="visible"/></clipPath><path class="st52 st53" d="M230 407.3H89.4c-1.6 0-2.9-1.3-2.9-2.9v-16.9c0-1.6 1.3-2.9 2.9-2.9H230c1.6 0 2.9 1.3 2.9 2.9v16.9c0 1.6-1.3 2.9-2.9 2.9z"/></g><g><path class="st54" d="M95.3 165.1c-3.9 0-7.4-1.4-8.5-3.5-1.2-2.5 1.6-5 6.3-5.7 2.6-.4 65.3-8.7 133.1 0 4.7.6 7.6 3.1 6.4 5.6-1.1 2.5-5.9 4-10.5 3.4-63.6-8.2-124-.1-124.6 0-.8.2-1.5.2-2.2.2z"/><path class="st55" d="M95.3 167c-4.7 0-8.8-1.8-10.1-4.5-.6-1.3-.6-2.8.1-4.1 1.1-2.1 4-3.7 7.6-4.2 2.6-.4 65.6-8.8 133.5 0 3.6.5 6.5 2 7.7 4.1.7 1.3.8 2.7.2 4.1-1.7 3.7-7.7 5.1-12.4 4.5-63.2-8.1-123.6-.1-124.2 0-.8 0-1.6.1-2.4.1zm66.1-7.5c18.6 0 39.6.9 61 3.7 4.4.6 8-1 8.6-2.4.1-.2.1-.4 0-.8-.5-.9-2.2-1.9-5-2.3-67.5-8.7-130-.3-132.6 0-2.7.4-4.4 1.4-4.9 2.3-.1.3-.2.5 0 .8.6 1.2 3.3 2.5 6.8 2.5.7 0 1.3 0 1.9-.1.4-.1 27.4-3.7 64.2-3.7z"/></g></svg>