<svg xmlns="http://www.w3.org/2000/svg" viewBox="0 0 161.07 166.74"><defs><linearGradient id="a" x1="162.97" y1="1341.53" x2="73.8" y2="1341.53" gradientTransform="translate(0 -1248)" gradientUnits="userSpaceOnUse"><stop offset="0" stop-color="#fec017"/><stop offset="1" stop-color="#f89923"/></linearGradient></defs><title>logo-sad</title><path d="M14 44.14a14.89 14.89 0 0 1 6.73-11.61L74.28 1.6a14.87 14.87 0 0 1 13.42 0l53.56 30.93A14.89 14.89 0 0 1 148 44.14v61.84a14.88 14.88 0 0 1-6.71 11.62L87.7 148.53a14.88 14.88 0 0 1-13.42 0l-53.55-30.94A14.88 14.88 0 0 1 14 105.97V44.14z" fill="#2b2c2b"/><path d="M20.3 47.76A14.89 14.89 0 0 1 27 36.14l47.28-27.3a14.88 14.88 0 0 1 13.42 0l47.3 27.3a14.88 14.88 0 0 1 6.71 11.62v54.59a14.88 14.88 0 0 1-6.71 11.62l-47.28 27.3a14.88 14.88 0 0 1-13.42 0L27 113.97a14.88 14.88 0 0 1-6.71-11.62V47.76z" fill="#fed16e"/><path d="M155 54.61l-47.3-27.3a13.74 13.74 0 0 0-6.71-1.6v135.63a13.73 13.73 0 0 0 6.71-1.6l47.3-27.3a14.87 14.87 0 0 0 6.71-11.62V66.23A14.88 14.88 0 0 0 155 54.61z" transform="translate(-20 -18.47)" fill="url(#a)"/><path d="M0 41.96a7.44 7.44 0 0 1 3.35-5.81l28.48-16.44a7.45 7.45 0 0 1 6.71 0L67 36.15a7.44 7.44 0 0 1 3.36 5.81v32.89A7.44 7.44 0 0 1 67 80.66L38.54 97.1a7.47 7.47 0 0 1-6.71 0L3.35 80.66A7.44 7.44 0 0 1 0 74.84V41.96z" fill="#2b2c2b"/><path d="M6.11 45.53a7.43 7.43 0 0 1 3.36-5.81l22.36-12.96a7.44 7.44 0 0 1 6.71 0l22.38 12.92a7.44 7.44 0 0 1 3.36 5.85v25.79a7.44 7.44 0 0 1-3.35 5.81L38.54 90.05a7.46 7.46 0 0 1-6.71 0L9.47 77.13a7.43 7.43 0 0 1-3.36-5.81V45.53z" fill="#9ddbee"/><path d="M9.94 76.8V51.6a8.33 8.33 0 0 1 3.72-6.49L35.3 32.53a8.2 8.2 0 0 1 7.44 0l21.5 12.51a8.45 8.45 0 0 0-3.65-5.68L38.94 26.74a8.21 8.21 0 0 0-7.44 0L9.86 39.34a8.32 8.32 0 0 0-3.72 6.49v25.2a8.32 8.32 0 0 0 3.72 6.5l.14.08a5.71 5.71 0 0 1-.06-.81z" fill="#4cb0c1"/><path d="M90.69 41.96A7.44 7.44 0 0 1 94 36.15l28.48-16.44a7.45 7.45 0 0 1 6.71 0l28.48 16.44a7.44 7.44 0 0 1 3.35 5.81v32.89a7.44 7.44 0 0 1-3.35 5.81l-28.48 16.45a7.47 7.47 0 0 1-6.71 0L94 80.66a7.43 7.43 0 0 1-3.36-5.81V41.96z" fill="#2b2c2b"/><path d="M96.82 45.53a7.44 7.44 0 0 1 3.36-5.81l22.35-12.9a7.45 7.45 0 0 1 6.71 0l22.35 12.9a7.44 7.44 0 0 1 3.35 5.81v25.78a7.45 7.45 0 0 1-3.35 5.81l-22.35 12.91a7.44 7.44 0 0 1-6.71 0l-22.36-12.91a7.44 7.44 0 0 1-3.35-5.81V45.53z" fill="#9ddbee"/><path d="M23.15 20.94s-2.13-13.76-.62-14 25-8.84 51.57 10.12c-11.5-6.69-50.95 3.88-50.95 3.88zm115.09.37s2.28-13.74.78-14-24.88-9.13-51.68 9.53c11.57-6.56 50.9 4.47 50.9 4.47zM68.59 144.1l12.8 22.64L94.2 144.1l-17.94 1.15z" fill="#2b2c2b"/><path d="M95.06 142.15c0-2.77-6.12-5-13.66-5s-13.66 2.24-13.66 5 6.12 5 13.66 5 13.66-2.23 13.66-5zM84 90.36a4.85 4.85 0 0 0-6 0l-5.34 4.44c-1.64 1.36-1.23 2.48.9 2.48h14.83c2.13 0 2.54-1.11.9-2.48zm20.44 25.55a51.87 51.87 0 0 0-21.82-4.56 56.58 56.58 0 0 0-25 5.29l2.73 4.62a52.52 52.52 0 0 1 22.22-4.59 50.83 50.83 0 0 1 19.47 4z" fill="#2b2c2b"/><path d="M100.63 76.67V51.59a8.28 8.28 0 0 1 3.71-6.46L126 32.58a8.23 8.23 0 0 1 7.44 0l21.49 12.46a8.38 8.38 0 0 0-3.65-5.66l-21.65-12.54a8.23 8.23 0 0 0-7.44 0l-21.64 12.54a8.27 8.27 0 0 0-3.72 6.46v25.08a8.27 8.27 0 0 0 3.71 6.46l.15.09a5.69 5.69 0 0 1-.06-.8z" fill="#4cb0c1"/><path d="M27.81 66.53l6.1-8.56 1 10.46a10.49 10.49 0 1 0-7.1-1.9zm94.25 1.27l3.73-9.83 3.57 9.88a10.5 10.5 0 1 0-7.3-.07zM77.19 46.89l-11.48 6.64v7l11.47-6.69a7.78 7.78 0 0 1 7.06 0l12 7V53.9l-12-7a7.76 7.76 0 0 0-7.05-.01zm.64 86.42l-9.22 5.37v5.58l9.21-5.37a6.27 6.27 0 0 1 5.68 0l9.67 5.63v-5.58l-9.67-5.63a6.25 6.25 0 0 0-5.67.01z" fill="#2b2c2b"/></svg>