<svg xmlns="http://www.w3.org/2000/svg" width="200" height="200" viewBox="0 0 200 200"><path fill="#2B2C2B" d="M34.022 62.607c0-4.261 3.02-9.49 6.71-11.621l53.551-30.917c3.693-2.133 9.731-2.133 13.42 0l53.557 30.917c3.689 2.131 6.709 7.36 6.709 11.621v61.836c0 4.26-3.02 9.49-6.709 11.619l-53.557 30.918c-3.688 2.131-9.727 2.131-13.42 0l-53.551-30.918c-3.691-2.129-6.71-7.359-6.71-11.619V62.607z"/><path fill="#FED16E" d="M40.299 66.228c0-4.26 3.019-9.489 6.707-11.62l47.278-27.297c3.693-2.131 9.731-2.131 13.42 0l47.284 27.297c3.689 2.13 6.707 7.359 6.707 11.62v54.59c0 4.265-3.018 9.492-6.707 11.621l-47.284 27.299c-3.688 2.131-9.727 2.131-13.42 0l-47.278-27.299c-3.688-2.129-6.707-7.356-6.707-11.621v-54.59z"/><linearGradient id="a" gradientUnits="userSpaceOnUse" x1="162.972" y1="108.476" x2="73.802" y2="108.476" gradientTransform="matrix(1 0 0 -1 0 202)"><stop offset="0" stop-color="#fec017"/><stop offset="1" stop-color="#f89923"/></linearGradient><path fill="url(#a)" d="M154.986 54.609l-47.282-27.297c-1.848-1.065-4.278-1.598-6.709-1.598v135.623c2.431 0 4.861-.533 6.709-1.599l47.282-27.299c3.691-2.129 6.709-7.356 6.709-11.621v-54.59c0-4.26-3.017-9.489-6.709-11.619z"/><path fill="#2B2C2B" d="M20 60.432c0-2.132 1.51-4.749 3.355-5.812l28.48-16.443c1.846-1.065 4.863-1.065 6.71 0l28.48 16.443c1.846 1.063 3.355 3.68 3.355 5.812v32.883c0 2.133-1.51 4.748-3.355 5.811l-28.48 16.449c-1.847 1.061-4.864 1.061-6.71 0l-28.48-16.449C21.51 98.062 20 95.447 20 93.314V60.432z"/><path fill="#9DDBEE" d="M26.108 63.958c0-2.133 1.51-4.748 3.356-5.811l22.371-12.918c1.846-1.065 4.863-1.066 6.71 0l22.378 12.918c1.843 1.065 3.353 3.678 3.353 5.811v25.831c0 2.131-1.509 4.748-3.353 5.811l-22.378 12.92c-1.847 1.063-4.864 1.063-6.71 0L29.465 95.6c-1.847-1.062-3.356-3.68-3.356-5.811V63.958z"/><path fill="#4CB0C1" d="M29.937 95.266V70.069c0-2.379 1.676-5.301 3.719-6.49l21.648-12.6c2.05-1.188 5.393-1.188 7.437 0l21.502 12.513c-.319-2.198-1.835-4.624-3.653-5.681L58.942 45.21c-2.046-1.188-5.39-1.188-7.438 0L29.857 57.811c-2.047 1.188-3.719 4.109-3.719 6.488v25.199c0 2.379 1.672 5.3 3.719 6.488l.151.09a5.711 5.711 0 0 1-.071-.81z"/><path fill="#2B2C2B" d="M110.691 60.432c0-2.132 1.51-4.749 3.355-5.812l28.477-16.443c1.846-1.065 4.865-1.065 6.711 0l28.479 16.443c1.846 1.063 3.354 3.68 3.354 5.812v32.883c0 2.133-1.51 4.748-3.354 5.811l-28.479 16.449c-1.846 1.061-4.865 1.061-6.711 0l-28.477-16.449c-1.846-1.062-3.355-3.678-3.355-5.811V60.432z"/><path fill="#9DDBEE" d="M116.822 63.968c0-2.13 1.508-4.745 3.355-5.812l22.348-12.904c1.846-1.065 4.865-1.065 6.711 0l22.348 12.904c1.848 1.067 3.357 3.681 3.357 5.812V89.78c0 2.127-1.51 4.742-3.352 5.808l-22.355 12.907c-1.846 1.066-4.865 1.066-6.711 0l-22.348-12.907c-1.846-1.065-3.354-3.681-3.354-5.808V63.968h.001z"/><path fill="#2B2C2B" d="M42.742 26.999s3.769-13.407 5.235-12.989c1.469.418 26.396 2.307 42.741 30.586-7.691-10.866-47.976-17.597-47.976-17.597zM159.268 26.999s-3.77-13.407-5.236-12.989c-1.469.418-26.398 2.307-42.734 30.586 7.679-10.866 47.97-17.597 47.97-17.597zM88.59 162.572l12.803 22.642 12.808-22.642-17.94 1.15z"/><path fill="#2B2C2B" d="M115.055 160.624c0-2.772-6.116-5.017-13.657-5.017-7.543 0-13.66 2.244-13.66 5.017 0 2.766 6.117 5.013 13.66 5.013 7.54-.001 13.657-2.248 13.657-5.013zM103.973 108.83c-1.638-1.362-4.315-1.362-5.953 0l-5.337 4.443c-1.639 1.363-1.234 2.479.896 2.479h14.835c2.132 0 2.538-1.114.896-2.479l-5.337-4.443zM122 130.408c-6.1 2.572-12.452 3.912-19.474 4.002a52.523 52.523 0 0 1-22.22-4.594l-2.731 4.619c7.677 3.581 15.983 5.413 25.021 5.293 8.196-.104 14.788-1.404 21.815-4.562L122 130.408z"/><path fill="#4CB0C1" d="M120.631 95.136v-25.08c0-2.369 1.672-5.278 3.713-6.461l21.652-12.544c2.047-1.184 5.393-1.184 7.436 0l21.494 12.458c-.311-2.192-1.83-4.604-3.646-5.659l-21.648-12.541c-2.043-1.184-5.393-1.184-7.438 0L120.551 57.85c-2.051 1.187-3.719 4.091-3.719 6.459v25.083c0 2.371 1.668 5.278 3.711 6.46l.152.088a5.688 5.688 0 0 1-.064-.804z"/><path fill="#2B2C2B" d="M53.918 65.917v10.512l-6.846-7.965a10.47 10.47 0 0 0-3.666 7.965c0 5.803 4.707 10.507 10.511 10.507 5.8 0 10.503-4.705 10.503-10.507.001-5.802-4.702-10.509-10.502-10.512zM145.789 65.917v10.512l-6.844-7.965a10.485 10.485 0 0 0-3.664 7.965c0 5.803 4.705 10.507 10.508 10.507 5.801 0 10.506-4.705 10.506-10.507-.002-5.802-4.699-10.509-10.506-10.512zM97.188 65.365l-11.474 6.683v6.951l11.474-6.687c1.939-1.13 5.118-1.13 7.062 0l12.029 7.012v-6.95l-12.029-7.009c-1.944-1.134-5.123-1.134-7.062 0zM97.826 151.787l-9.215 5.369v5.584l9.215-5.373c1.563-.906 4.114-.906 5.679 0L113.17 163v-5.582l-9.665-5.631c-1.565-.91-4.115-.91-5.679 0z"/></svg>