<svg xmlns="http://www.w3.org/2000/svg" version="1.1" x="0" y="0" viewBox="0 0 92.5 90" xml:space="preserve"><polygon fill="#F7D16F" points="7.4 66.7 7.4 26.5 42.3 6.4 77.1 26.5 77.1 66.7 42.3 86.8 "/><path fill="#5A6160" d="M42.1 92.5c-2.7 0-5.3-0.6-7.5-1.8L7.5 75.2C3.2 72.8 0 67.3 0 62.1V30.7c0-5.1 3.2-10.6 7.5-13.1L34.6 1.8c4.4-2.4 10.7-2.4 15 0l0.1 0.1 26.9 15.7c4.4 2.5 7.5 7.9 7.5 13.1v31.2c0 5.1-3.2 10.6-7.5 13.1L49.6 90.7C47.4 91.9 44.8 92.5 42.1 92.5zM41.3 78.5c0.4 0.1 1.2 0.1 1.6 0l26.8-15.6c0.2-0.2 0.5-0.8 0.6-1.1v-31c-0.1-0.3-0.3-0.8-0.6-1.1L42.9 14.1c-0.4-0.1-1.2-0.1-1.6 0L14.6 29.7c-0.2 0.2-0.5 0.8-0.6 1.1V62c0.1 0.3 0.3 0.8 0.6 1.1L41.3 78.5zM14.6 63.1L14.6 63.1 14.6 63.1zM14.4 63L14.4 63C14.4 63 14.4 63 14.4 63zM70.2 30.8L70.2 30.8 70.2 30.8zM14.6 29.7L14.6 29.7 14.6 29.7zM69.6 29.7L69.6 29.7 69.6 29.7z"/></svg>
