<svg id="Layer_2" xmlns="http://www.w3.org/2000/svg" xmlns:xlink="http://www.w3.org/1999/xlink" viewBox="0 0 74.4 82.8"><style>.st0{fill:#f7d16f}.st1,.st2,.st3,.st4{clip-path:url(#SVGID_2_);fill:#f7c016}.st2,.st3,.st4{fill:#f7bf16}.st3,.st4{fill:#f7be17}.st4{fill:#f7bd17}.st5,.st6,.st7,.st8,.st9{clip-path:url(#SVGID_2_);fill:#f7bc17}.st6,.st7,.st8,.st9{fill:#f6bb18}.st7,.st8,.st9{fill:#f6ba18}.st8,.st9{fill:#f6b919}.st9{fill:#f6b819}.st10,.st11,.st12,.st13,.st14{clip-path:url(#SVGID_2_);fill:#f6b719}.st11,.st12,.st13,.st14{fill:#f6b61a}.st12,.st13,.st14{fill:#f6b51a}.st13,.st14{fill:#f6b41a}.st14{fill:#f6b31b}.st15,.st16,.st17,.st18,.st19{clip-path:url(#SVGID_2_);fill:#f6b21b}.st16,.st17,.st18,.st19{fill:#f5b11c}.st17,.st18,.st19{fill:#f5b01c}.st18,.st19{fill:#f5af1c}.st19{fill:#f5ae1d}.st20,.st21,.st22,.st23,.st24{clip-path:url(#SVGID_2_);fill:#f5ad1d}.st21,.st22,.st23,.st24{fill:#f5ab1d}.st22,.st23,.st24{fill:#f5aa1e}.st23,.st24{fill:#f5a91e}.st24{fill:#f5a81e}.st25,.st26,.st27,.st28,.st29{clip-path:url(#SVGID_2_);fill:#f4a71f}.st26,.st27,.st28,.st29{fill:#f4a61f}.st27,.st28,.st29{fill:#f4a520}.st28,.st29{fill:#f4a420}.st29{fill:#f4a320}.st30,.st31,.st32,.st33,.st34{clip-path:url(#SVGID_2_);fill:#f4a221}.st31,.st32,.st33,.st34{fill:#f4a121}.st32,.st33,.st34{fill:#f4a021}.st33,.st34{fill:#f49f22}.st34{fill:#f49e22}.st35,.st36,.st37,.st38,.st39{clip-path:url(#SVGID_2_);fill:#f39d23}.st36,.st37,.st38,.st39{fill:#f39c23}.st37,.st38,.st39{fill:#f39b23}.st38,.st39{fill:#f39a24}.st39{fill:#f39924}.st40{enable-background:new}.st41{fill:#5a6160}.st42{clip-path:url(#SVGID_4_)}.st43{fill:#5b7477}.st44{clip-path:url(#SVGID_6_)}.st45{fill:#5f8589}</style><path class="st0" d="M2.6 61.8V21.6L37.4 1.5l34.8 20.1v40.2L37.4 81.9z"/><defs><path id="SVGID_1_" d="M37.2 1l34.9 20.1v40.2L37.2 81.4"/></defs><clipPath id="SVGID_2_"><use xlink:href="#SVGID_1_" overflow="visible"/></clipPath><path class="st1" d="M37.2 1v80.4V1zM37.2 1h.9v80.4h-.9z"/><path class="st2" d="M38.1 1h.9v80.4h-.9z"/><path class="st3" d="M39 1h.9v80.4H39z"/><path class="st4" d="M39.9 1h.9v80.4h-.9z"/><path class="st5" d="M40.8 1h.9v80.4h-.9z"/><path class="st6" d="M41.7 1h.9v80.4h-.9z"/><path class="st7" d="M42.6 1h.9v80.4h-.9z"/><path class="st8" d="M43.5 1h.9v80.4h-.9z"/><path class="st9" d="M44.4 1h.9v80.4h-.9z"/><path class="st10" d="M45.3 1h.9v80.4h-.9z"/><path class="st11" d="M46.2 1h.9v80.4h-.9z"/><path class="st12" d="M47 1h.9v80.4H47z"/><path class="st13" d="M47.9 1h.9v80.4h-.9z"/><path class="st14" d="M48.8 1h.9v80.4h-.9z"/><path class="st15" d="M49.7 1h.9v80.4h-.9z"/><path class="st16" d="M50.6 1h.9v80.4h-.9z"/><path class="st17" d="M51.5 1h.9v80.4h-.9z"/><path class="st18" d="M52.4 1h.9v80.4h-.9z"/><path class="st19" d="M53.3 1h.9v80.4h-.9z"/><path class="st20" d="M54.2 1h.9v80.4h-.9z"/><path class="st21" d="M55.1 1h.9v80.4h-.9z"/><path class="st22" d="M56 1h.9v80.4H56z"/><path class="st23" d="M56.9 1h.9v80.4h-.9z"/><path class="st24" d="M57.8 1h.9v80.4h-.9z"/><path class="st25" d="M58.7 1h.9v80.4h-.9z"/><path class="st26" d="M59.5 1h.9v80.4h-.9z"/><path class="st27" d="M60.4 1h.9v80.4h-.9z"/><path class="st28" d="M61.3 1h.9v80.4h-.9z"/><path class="st29" d="M62.2 1h.9v80.4h-.9z"/><path class="st30" d="M63.1 1h.9v80.4h-.9z"/><path class="st31" d="M64 1h.9v80.4H64z"/><path class="st32" d="M64.9 1h.9v80.4h-.9z"/><path class="st33" d="M65.8 1h.9v80.4h-.9z"/><path class="st34" d="M66.7 1h.9v80.4h-.9z"/><path class="st35" d="M67.6 1h.9v80.4h-.9z"/><path class="st36" d="M68.5 1h.9v80.4h-.9z"/><path class="st37" d="M69.4 1h.9v80.4h-.9z"/><path class="st38" d="M70.3 1h.9v80.4h-.9z"/><path class="st39" d="M71.2 1h.9v80.4h-.9zM72.1 81.4V1v80.4z"/><g id="XMLID_5_" class="st40"><path class="st41" d="M37.2 82.8c-1.9 0-3.7-.4-5.1-1.2l-27-15.5C2.2 64.5 0 60.6 0 57.3V25.8c0-3.4 2.2-7.3 5.1-8.9L32 1.2c2.9-1.6 7.5-1.6 10.4 0l27 15.8c2.8 1.6 5.1 5.5 5.1 8.8V57c0 3.4-2.2 7.3-5.1 8.9l-27 15.7c-1.4.8-3.3 1.2-5.2 1.2zm0-78.5c-1.1 0-2.3.2-3.1.7L7.2 20.6c-1.5.9-2.9 3.3-2.9 5.1v31.5c0 1.8 1.4 4.3 2.9 5.1l27 15.5c1.6.9 4.5.9 6.1 0l26.9-15.7c1.5-.8 2.9-3.3 2.9-5.1V25.8c0-1.8-1.4-4.3-2.9-5.1l-27-15.8c-.7-.4-1.8-.6-3-.6z"/></g><g><defs><path id="SVGID_3_" d="M42.2 42.8s-.4-13.2-4.9-26c-4.4 12.8-4.9 26-4.9 26v.6c0 2.8 2.2 5.1 4.9 5.1s4.9-2.3 4.9-5.1v-.6z"/></defs><use xlink:href="#SVGID_3_" overflow="visible" fill="#596b70"/><clipPath id="SVGID_4_"><use xlink:href="#SVGID_3_" overflow="visible"/></clipPath><path class="st42 st43" d="M43.7 41.7s-1.3-14-5.7-26.8c-4.4 12.8-4 26.8-4 26.8v.6c0 2.8 2.2 5.1 4.9 5.1s4.9-2.3 4.9-5.1c-.1-.2-.2-.4-.1-.6z" id="XMLID_10_"/></g><g><defs><path id="SVGID_5_" d="M35.7 47.2s8.5 7.9 18.9 13.2C49.2 50 41.2 41.7 41.2 41.7c-.1-.1-.2-.3-.4-.4-1.7-1.7-4.4-1.9-5.9-.4s-1.3 4.2.4 5.9c.2.1.3.3.4.4z"/></defs><use xlink:href="#SVGID_5_" overflow="visible" fill="#5e7e82"/><clipPath id="SVGID_6_"><use xlink:href="#SVGID_5_" overflow="visible"/></clipPath><path class="st44 st45" d="M35.6 48.7s9.4 7.9 19.9 13.2C50 51.6 41.1 43.2 41.1 43.2c-.1-.1-.2-.3-.4-.4-1.7-1.7-4.4-1.9-5.9-.4s-1.3 4.2.4 5.9c.1.2.3.3.4.4z" id="XMLID_12_"/></g><g><ellipse transform="rotate(-25.653 37.523 43.857)" class="st0" cx="37.5" cy="43.9" rx="1.5" ry="1.5"/></g></svg>