<?xml version="1.0" standalone="no"?>
<!DOCTYPE svg PUBLIC "-//W3C//DTD SVG 20010904//EN"
 "http://www.w3.org/TR/2001/REC-SVG-20010904/DTD/svg10.dtd">
<svg version="1.0" xmlns="http://www.w3.org/2000/svg"
 width="250.000000pt" height="150.000000pt" viewBox="0 0 250.000000 150.000000"
 preserveAspectRatio="xMidYMid meet">
<metadata>
Created by potrace 1.10, written by Peter Selinger 2001-2011
</metadata>
<g transform="translate(0.000000,150.000000) scale(0.050000,-0.050000)"
fill="#aaaaaa" stroke="none">
<path d="M1761 2447 c-63 -80 -64 -1024 -1 -1087 55 -55 1434 -63 1489 -9 57
58 46 1077 -13 1118 -39 27 -143 31 -739 31 l-694 0 -42 -53z m1389 -67 c13 0
20 -172 20 -475 l0 -475 -660 0 -660 0 -5 460 c-3 252 -2 469 3 482 7 17 178
21 645 15 351 -4 646 -7 657 -7z"/>
<path d="M1983 2254 c-137 -147 85 -347 228 -205 27 27 49 73 49 101 0 129
-187 199 -277 104z"/>
<path d="M2700 2150 c-14 -17 -105 -103 -202 -192 l-177 -162 -64 64 -63 63
-127 -126 c-111 -110 -127 -135 -127 -201 l0 -76 570 0 570 0 0 172 0 171
-163 154 c-187 177 -183 174 -217 133z m145 -304 c19 -18 35 -58 35 -89
127 101 95 143 98 231 19z"/>
<path d="M1073 785 c2 -96 9 -173 15 -170 7 3 26 5 42 5 22 0 30 24 30 95 l0
95 65 -100 c98 -150 124 -135 131 75 5 163 3 175 -34 175 -33 0 -41 -16 -46
-95 l-6 -95 -56 95 c-97 165 -145 138 -141 -80z"/>
<path d="M1820 822 c0 -193 6 -202 122 -202 116 0 143 53 33 64 l-65 6 -6 135
c-5 119 -11 135 -45 135 -35 0 -39 -14 -39 -138z"/>
<path d="M3020 951 c0 -5 20 -43 45 -84 24 -42 49 -116 55 -165 13 -118 80
-139 80 -25 1 42 25 117 59 178 l58 105 -50 0 c-36 0 -56 -17 -75 -62 l-26
-61 -25 61 c-22 52 -121 96 -121 53z"/>
<path d="M3820 851 c0 -181 68 -177 85 4 9 100 7 105 -38 105 -44 0 -47 -8
-47 -109z"/>
<path d="M3616 905 c-26 -107 13 -272 69 -287 46 -12 55 -8 55 24 0 21 -9 38
-20 38 -11 0 -20 32 -20 70 0 39 9 70 20 70 11 0 20 14 20 30 0 17 -9 30 -20
30 -11 0 -20 14 -20 30 0 42 -73 38 -84 -5z"/>
<path d="M1431 869 c-44 -45 -41 -194 6 -236 90 -82 203 -15 203 122 0 97 -40
145 -120 145 -31 0 -71 -14 -89 -31z m125 -116 c5 -61 0 -73 -32 -73 -46 0
-65 53 -41 117 25 67 66 42 73 -44z"/>
<path d="M2115 878 c-50 -29 -49 -199 2 -245 86 -78 203 -7 203 124 0 120
-103 181 -205 121z m121 -125 c5 -61 0 -73 -32 -73 -46 0 -65 53 -41 117 25
67 66 42 73 -44z"/>
<path d="M2384 876 c-76 -76 -8 -251 88 -227 38 9 49 6 43 -13 -5 -14 -31 -24
-57 -22 -81 6 -107 -9 -77 -45 17 -21 52 -29 107 -25 l82 6 6 175 6 175 -87 0
c-48 0 -98 -11 -111 -24z m132 -89 c8 -57 -43 -97 -75 -59 -18 22 -18 40 -1
72 27 50 68 43 76 -13z"/>
<path d="M2671 869 c-44 -45 -41 -194 6 -236 90 -82 203 -15 203 122 0 97 -40
145 -120 145 -31 0 -71 -14 -89 -31z m125 -116 c5 -61 0 -73 -32 -73 -46 0
-65 53 -41 117 25 67 66 42 73 -44z"/>
<path d="M3353 863 c-78 -86 -15 -263 94 -263 48 0 113 55 113 97 0 28 -53 31
-70 3 -19 -31 -90 -23 -90 10 0 22 22 30 80 30 63 0 80 7 80 36 0 106 -137
165 -207 87z"/>
<path d="M3820 650 c0 -43 8 -52 45 -46 30 4 45 20 45 46 0 26 -15 42 -45 46
-37 6 -45 -3 -45 -46z"/>
</g>
</svg>
