<svg width="383" height="100" xmlns="http://www.w3.org/2000/svg"><style>.st0{fill:#fff}</style><g stroke="null" id="svg_1"><path id="XMLID_5_" class="st0" d="M185.046 38.098c-7.932 0-14.345 5.522-14.345 12.35s6.413 12.35 14.345 12.35 14.344-5.52 14.344-12.35-6.413-12.35-14.344-12.35zM170.7 67.884v6.538h-15.188V3.227H170.7v29.786s5.4-7.265 18.564-7.265c13.922 0 25.313 11.115 25.313 24.7s-11.39 24.7-25.313 24.7c-12.91 0-18.564-7.264-18.564-7.264z"/><path id="XMLID_14_" class="st0" d="M316.002 71.59l-22.107-45.115h15.779l14.176 30.512 14.175-30.512h15.78L319.377 97.67h-15.695z"/><path id="XMLID_11_" class="st0" d="M46.664 37.372h15.188c7.003 0 12.657-4.868 12.657-10.897s-5.654-10.897-12.657-10.897H46.664v21.794zm5.484 12.35h-5.484v24.7H30.632V3.227h33.751c14.851 0 27.002 10.462 27.002 23.248 0 10.752-8.523 20.05-20.673 22.593l-1.182.218 20.505 25.136H70.712l-18.564-24.7z"/><path id="XMLID_8_" class="st0" d="M120.074 36.645c-10.632 0-13.164 8.718-13.164 8.718h26.242c.085 0-2.447-8.718-13.078-8.718zM91.384 50.45c0-14.53 11.814-24.7 28.69-24.7s28.689 10.17 28.689 24.7c0 1.235-.085 2.47-.254 3.632h-41.936v.726c0 5.231 6.075 9.445 13.5 9.445 5.063 0 10.38-1.962 13.164-4.868l11.391 6.539c-5.4 5.957-14.091 9.226-24.554 9.226-16.876 0-28.69-10.17-28.69-24.7z"/><path id="XMLID_4_" class="st0" d="M221.329 26.475h15.188v47.948h-15.188z"/><path id="XMLID_3_" class="st0" d="M246.643 14.851h15.188v59.571h-15.188z"/><path id="XMLID_17_" class="st0" d="M271.956 3.227h15.188v71.195h-15.188z"/></g></svg>