<svg width="383" height="100" xmlns="http://www.w3.org/2000/svg" xmlns:svg="http://www.w3.org/2000/svg">
 <style type="text/css">.st0{fill:#ffffff;}</style>
 <g>
  <g stroke="null" id="svg_1">
   <path stroke="null" id="XMLID_5_" class="st0" d="m185.0457,38.09837c-7.93166,0 -14.34448,5.52124 -14.34448,12.35015s6.41283,12.35015 14.34448,12.35015s14.34448,-5.52124 14.34448,-12.35015s-6.41283,-12.35015 -14.34448,-12.35015zm-14.34448,29.78565l0,6.53831l-15.18828,0l0,-71.19498l15.18828,0l0,29.78565c0,0 5.40028,-7.26479 18.56345,-7.26479c13.92259,0 25.3138,11.11513 25.3138,24.7003s-11.39121,24.7003 -25.3138,24.7003c-12.91004,0 -18.56345,-7.26479 -18.56345,-7.26479z"/>
   <polygon stroke="null" id="XMLID_14_" class="st0" points="316.00238037109375,71.58905029296875 293.89501953125,26.47470474243164 309.6739501953125,26.47470474243164 323.8497009277344,56.98683166503906 338.02545166015625,26.47470474243164 353.8043518066406,26.47470474243164 319.3775634765625,97.669677734375 303.68304443359375,97.669677734375 "/>
   <path stroke="null" fill="black" id="XMLID_11_" class="st0" d="m46.66362,37.37189l15.18828,0c7.00348,0 12.6569,-4.86741 12.6569,-10.89719s-5.65341,-10.89719 -12.6569,-10.89719l-15.18828,0l0,21.79438zm5.48466,12.35015l-5.48466,0l0,24.7003l-16.03207,0l0,-71.19498l33.75173,0c14.85076,0 27.00138,10.4613 27.00138,23.24734c0,10.75189 -8.52231,20.05083 -20.67293,22.59351l-1.18131,0.21794l20.50417,25.13619l-19.32286,0l-18.56345,-24.7003z"/>
   <path stroke="null" id="XMLID_8_" class="st0" d="m120.07363,36.64541c-10.63179,0 -13.16317,8.71775 -13.16317,8.71775l26.24197,0c0.08438,0 -2.447,-8.71775 -13.07879,-8.71775l-0.00001,0zm-28.68897,13.80311c0,-14.52959 11.8131,-24.7003 28.68897,-24.7003s28.68897,10.17071 28.68897,24.7003c0,1.23501 -0.08438,2.47003 -0.25314,3.6324l-41.93652,0l0,0.72648c0,5.23065 6.07531,9.44423 13.50069,9.44423c5.06276,0 10.37866,-1.96149 13.16317,-4.86741l11.39121,6.53831c-5.40028,5.95713 -14.09135,9.22629 -24.55438,9.22629c-16.87586,0 -28.68897,-10.17071 -28.68897,-24.7003z"/>
   <rect stroke="null" id="XMLID_4_" x="221.32881" y="26.4747" class="st0" width="15.18828" height="47.94764"/>
   <rect stroke="null" id="XMLID_3_" x="246.6426" y="14.85103" class="st0" width="15.18828" height="59.57131"/>
   <rect stroke="null" id="XMLID_17_" x="271.9564" y="3.22736" class="st0" width="15.18828" height="71.19498"/>
  </g>
 </g>
</svg>
